<?xml version="1.0" encoding="UTF-8"?>
<!-- Generator: visioncortex VTracer 0.6.4 -->
<svg version="1.1" xmlns="http://www.w3.org/2000/svg" width="1254" height="1254">
<path d="M0 0 C413.82 0 827.64 0 1254 0 C1254 413.82 1254 827.64 1254 1254 C840.18 1254 426.36 1254 0 1254 C0 840.18 0 426.36 0 0 Z " fill="#FDFDFD" transform="translate(0,0)"/>
<path d="M0 0 C1.3 0.2 2.61 0.41 3.95 0.62 C66.1 11.63 127.06 48.59 164 100 C164.86 101.17 165.73 102.34 166.59 103.51 C172.15 111.08 177.27 118.88 182 127 C182.62 128.05 182.62 128.05 183.25 129.13 C201.67 160.65 214.73 197.35 217 234 C217.05 234.75 217.1 235.51 217.15 236.28 C218.97 267.27 205.67 296.41 185.44 319.25 C179.62 325.56 173.71 331.63 167 337 C166.34 336.67 165.68 336.34 165 336 C165.2 335.25 165.4 334.5 165.61 333.73 C180.82 276.7 175.81 219.78 146.11 167.89 C136.63 151.73 125.45 136.06 111.93 123.02 C110.89 122.02 110.89 122.02 109.83 120.99 C108.46 119.68 107.08 118.39 105.69 117.11 C103.96 115.47 102.39 113.93 101 112 C101.05 109.28 101.05 109.28 102 107 C102.49 102.52 102.38 100.6 99.94 96.75 C97.36 93.66 93.82 92.07 90 91 C88.05 91.01 86.1 91.03 84.15 91.2 C73.74 92.09 67.67 88.72 59.09 83.27 C11.63 54.35 -48.12 51.66 -100.79 64.2 C-134.31 72.58 -164.25 90.35 -190 113 C-190.99 113.87 -191.99 114.74 -193.01 115.63 C-198.43 120.47 -203.35 125.43 -208 131 C-208.82 131.92 -209.64 132.84 -210.48 133.79 C-246.77 174.8 -265.64 231.51 -263.13 285.9 C-261.95 304.86 -258.2 324.07 -252 342 C-251.71 342.86 -251.42 343.72 -251.11 344.6 C-247.32 355.6 -242.81 365.93 -237.06 376.05 C-236.65 376.79 -236.23 377.53 -235.81 378.29 C-235.44 378.94 -235.06 379.58 -234.68 380.25 C-234 382 -234 382 -235 385 C-236.68 386.15 -236.68 386.15 -238.87 387.23 C-240.06 387.84 -240.06 387.84 -241.29 388.47 C-242.14 388.89 -243 389.31 -243.88 389.75 C-250.52 393.12 -256.79 396.59 -262.87 400.92 C-265 402 -265 402 -267.04 402.05 C-270.04 400.44 -271.36 397.87 -273 395 C-273.38 394.35 -273.76 393.69 -274.15 393.02 C-304.39 339.76 -315.55 276.24 -303 216 C-302.76 214.84 -302.76 214.84 -302.51 213.66 C-301.67 209.75 -300.67 205.9 -299.57 202.05 C-298.92 199.72 -298.34 197.38 -297.77 195.03 C-288.66 158.74 -271.25 125.2 -248 96 C-247.55 95.43 -247.1 94.86 -246.63 94.27 C-234.51 79.2 -220.53 64.56 -205 53 C-203.92 52.16 -202.83 51.33 -201.75 50.49 C-170.87 26.95 -135.81 10.62 -98 2 C-97.27 1.83 -96.55 1.67 -95.8 1.49 C-65.07 -5.41 -30.95 -5.28 0 0 Z " fill="#1286E5" transform="translate(672,163)"/>
<path d="M0 0 C-2.9 1.93 -5.04 2.75 -8.35 3.73 C-9.42 4.06 -10.49 4.38 -11.6 4.72 C-12.74 5.06 -13.88 5.4 -15.06 5.75 C-23.11 8.19 -31.15 10.64 -39.12 13.31 C-39.81 13.54 -40.5 13.77 -41.22 14.01 C-45.85 15.57 -50.43 17.26 -55 19 C-56.67 19.63 -56.67 19.63 -58.37 20.28 C-61.69 21.54 -64.99 22.81 -68.3 24.08 C-69.68 24.61 -71.06 25.14 -72.44 25.66 C-79.76 28.45 -86.97 31.27 -93.9 34.94 C-96.12 36.06 -98.37 36.98 -100.69 37.88 C-149.63 57.06 -212.91 92.01 -236 142 C-238.95 149.55 -239.4 157.52 -236.97 165.3 C-231.33 177.62 -222.25 183.12 -210 188 C-209.22 188.32 -208.43 188.64 -207.62 188.96 C-196.79 192.97 -185.22 193.33 -173.8 193.26 C-171.7 193.25 -169.6 193.26 -167.5 193.27 C-153.81 193.29 -140.57 191.58 -127.19 188.69 C-126.16 188.47 -125.14 188.25 -124.08 188.02 C-97.36 182.21 -72.17 173.47 -47.34 161.98 C-45.22 161.09 -43.23 160.53 -41 160 C-45.23 165.04 -49.64 169.78 -54.3 174.42 C-55.01 175.12 -55.71 175.83 -56.44 176.55 C-58.75 178.86 -61.06 181.17 -63.38 183.48 C-65 185.09 -66.61 186.71 -68.23 188.32 C-72.47 192.56 -76.71 196.79 -80.96 201.03 C-85.28 205.34 -89.59 209.64 -93.9 213.95 C-100.87 220.91 -107.84 227.87 -114.81 234.82 C-116.01 236.02 -117.2 237.21 -118.4 238.4 C-119.86 239.86 -121.31 241.31 -122.77 242.76 C-124.49 244.48 -126.17 246.22 -127.81 248.02 C-137.42 258.45 -147.3 268.59 -157.3 278.65 C-159.16 280.53 -161.02 282.41 -162.87 284.31 C-165.58 287.07 -168.31 289.82 -171.04 292.56 C-171.86 293.41 -172.69 294.26 -173.54 295.13 C-174.32 295.91 -175.09 296.68 -175.89 297.47 C-176.57 298.16 -177.24 298.84 -177.94 299.54 C-180 301 -180 301 -182.34 301.6 C-186.53 300.65 -188.76 297.9 -191.7 294.88 C-192.35 294.23 -193 293.58 -193.68 292.91 C-195.84 290.76 -197.98 288.58 -200.12 286.41 C-201.62 284.9 -203.12 283.39 -204.62 281.89 C-208.58 277.92 -212.52 273.93 -216.46 269.94 C-219.66 266.71 -222.87 263.48 -226.09 260.26 C-229.93 256.39 -233.78 252.53 -237.62 248.66 C-238.34 247.92 -239.07 247.19 -239.82 246.44 C-241.9 244.35 -243.97 242.25 -246.04 240.15 C-246.65 239.54 -247.25 238.94 -247.87 238.31 C-250.84 235.3 -253.7 232.23 -256.47 229.03 C-259.98 224.97 -263.69 221.17 -267.5 217.39 C-268.21 216.68 -268.92 215.96 -269.66 215.23 C-271.99 212.9 -274.32 210.58 -276.65 208.25 C-278.28 206.62 -279.91 205 -281.53 203.37 C-285.79 199.12 -290.06 194.86 -294.32 190.61 C-298.68 186.26 -303.04 181.91 -307.39 177.56 C-315.93 169.04 -324.46 160.52 -333 152 C-331.48 147.93 -329.8 145.37 -326.81 142.19 C-324.07 139.24 -321.38 136.28 -318.81 133.19 C-311.22 124.47 -302.34 116.77 -293 110 C-292.67 109.34 -292.34 108.68 -292 108 C-292.55 107.82 -293.09 107.64 -293.65 107.45 C-294.41 107.2 -295.16 106.95 -295.94 106.69 C-296.77 106.43 -297.6 106.17 -298.45 105.91 C-301 105 -301 105 -303.11 103.78 C-305.64 102.45 -307.12 101.93 -310 102 C-314.49 104.33 -318.27 107.3 -322.16 110.5 C-323.94 111.95 -325.75 113.35 -327.59 114.74 C-335.47 120.73 -342.82 127.2 -350 134 C-355.43 130.69 -359.81 126.59 -364.38 122.19 C-369.22 117.55 -374.1 112.98 -379.17 108.58 C-381.64 106.44 -384.07 104.25 -386.5 102.06 C-387.36 101.29 -388.21 100.52 -389.09 99.72 C-389.72 99.15 -390.35 98.59 -391 98 C-389.67 94.9 -388.48 93.33 -385.65 91.52 C-384.97 91.08 -384.29 90.65 -383.59 90.2 C-382.5 89.51 -382.5 89.51 -381.38 88.81 C-380.61 88.33 -379.85 87.85 -379.06 87.35 C-371.52 82.62 -363.83 78.22 -356 74 C-355.16 73.55 -354.33 73.09 -353.47 72.62 C-344.04 67.52 -334.76 62.59 -324.65 58.98 C-321.61 57.85 -318.81 56.45 -315.93 54.96 C-308.89 51.46 -301.33 49.02 -293.93 46.41 C-291.18 45.43 -288.45 44.42 -285.72 43.37 C-273.97 38.89 -262.06 35.28 -249.96 31.86 C-246.84 30.95 -243.73 29.99 -240.63 29.01 C-233.91 26.93 -227.14 25.18 -220.31 23.5 C-219.1 23.2 -217.88 22.9 -216.63 22.59 C-209.7 20.88 -202.77 19.2 -195.81 17.62 C-195.14 17.47 -194.46 17.31 -193.77 17.15 C-189.45 16.2 -185.19 15.65 -180.79 15.26 C-178.98 15.18 -178.98 15.18 -178 14 C-176.06 13.6 -174.1 13.27 -172.14 12.95 C-170.27 12.65 -170.27 12.65 -168.36 12.34 C-166.99 12.12 -165.62 11.9 -164.25 11.69 C-163.56 11.58 -162.86 11.47 -162.15 11.35 C-147.46 9.02 -132.75 6.86 -118 5 C-116.88 4.86 -115.76 4.72 -114.61 4.57 C-76.57 -0.12 -38.27 -0.34 0 0 Z " fill="#133764" transform="translate(811,486)"/>
<path d="M0 0 C0.33 0 0.66 0 1 0 C1.82 49.96 -35.71 102.35 -69 137 C-69.57 137.59 -70.13 138.19 -70.72 138.8 C-79.25 147.7 -88.07 155.69 -98 163 C-98.55 163.42 -99.11 163.83 -99.68 164.26 C-123.6 182.15 -150.05 195.65 -178 206 C-179.35 206.51 -179.35 206.51 -180.73 207.03 C-194.23 212.07 -207.86 215.07 -222.06 217.48 C-223.91 217.81 -225.76 218.17 -227.6 218.57 C-235.46 220.25 -243.24 220.3 -251.23 220.26 C-253.56 220.25 -255.89 220.26 -258.22 220.27 C-271.47 220.29 -284.54 219.41 -295.02 210.23 C-298.39 206.46 -300.8 202.68 -301.19 197.53 C-299.82 178.69 -284.48 163.04 -271 151 C-266.45 147.18 -261.73 143.59 -257 140 C-256.67 139.67 -256.34 139.34 -256 139 C-253.63 138.64 -251.27 138.33 -248.89 138.05 C-247.35 137.87 -245.82 137.68 -244.28 137.49 C-243.46 137.39 -242.64 137.29 -241.8 137.19 C-213.96 133.76 -186.32 129.36 -159.55 120.79 C-155.85 119.65 -152.11 118.66 -148.37 117.68 C-145.12 116.75 -142.11 115.34 -139 114 C-136.92 113.36 -134.84 112.74 -132.75 112.12 C-127.49 110.55 -122.59 108.61 -117.63 106.25 C-114.46 104.74 -111.23 103.37 -108 102 C-73.83 87.39 -37.72 68.14 -17 36 C-16.45 35.17 -16.45 35.17 -15.9 34.33 C-9.77 24.98 -5.63 15.54 -2 5 C-1.35 3.33 -0.68 1.66 0 0 Z " fill="#0D7FE1" transform="translate(899,442)"/>
<path d="M0 0 C9.52 -0.07 19.04 -0.12 28.56 -0.16 C32.98 -0.17 37.4 -0.19 41.82 -0.23 C46.1 -0.26 50.38 -0.28 54.66 -0.28 C56.28 -0.29 57.9 -0.3 59.52 -0.32 C78.65 -0.5 98.84 2.15 113.19 16.14 C122.19 25.9 126.59 35.93 126.44 49.25 C126.43 50.17 126.42 51.09 126.41 52.03 C126.11 64.48 122.7 75.15 113.89 84.15 C102.16 95 102.16 95 96 95 C101.71 104.47 107.51 113.87 113.56 123.12 C117.68 129.43 121.79 135.75 125.81 142.12 C126.24 142.79 126.67 143.46 127.11 144.15 C130 148.77 130 148.77 130 151 C123.78 151.4 117.56 151.69 111.32 151.88 C109.21 151.96 107.09 152.07 104.98 152.21 C88.04 153.29 88.04 153.29 83.16 149.61 C79.91 145.93 77.94 141.67 76 137.19 C74.44 133.76 72.42 130.66 70.41 127.49 C69.68 126.29 68.95 125.09 68.22 123.88 C67.87 123.3 67.51 122.71 67.15 122.1 C66.79 121.51 66.43 120.92 66.06 120.31 C65.31 119.08 64.57 117.84 63.82 116.61 C61.88 113.41 59.94 110.21 58 107 C57.43 106.09 56.86 105.18 56.27 104.25 C55 102 55 102 55 100 C49.39 100 43.78 100 38 100 C38 116.5 38 133 38 150 C25.13 150 12.26 150 -1 150 C-1.03 138.12 -1.05 126.25 -1.06 114.38 C-1.06 113.48 -1.06 112.59 -1.07 111.68 C-1.09 84.45 -0.92 57.23 -0.5 30 C-0.49 29.23 -0.48 28.46 -0.46 27.67 C-0.32 18.45 -0.17 9.22 0 0 Z " fill="#042854" transform="translate(134,815)"/>
<path d="M0 0 C0.97 -0.02 1.94 -0.03 2.94 -0.05 C19.09 -0.06 34.96 6.79 46.65 17.89 C58.98 30.42 63.98 45.75 64 62.87 C63.89 70.23 62.55 76.5 59.69 83.31 C59.26 84.34 58.84 85.36 58.4 86.42 C53.81 96.5 46.56 104.73 37.69 111.31 C36.69 112.06 36.69 112.06 35.66 112.83 C20.65 122.95 1.29 124.61 -16.12 121.25 C-28.03 117.99 -37.72 112.15 -46.31 103.31 C-46.95 102.7 -47.58 102.09 -48.23 101.45 C-53.83 95.66 -57.03 88.57 -60.31 81.31 C-60.88 80.11 -60.88 80.11 -61.45 78.89 C-66.12 64.95 -64.25 48.44 -58.31 35.31 C-50.7 20.2 -37.55 9.2 -21.89 3.14 C-14.39 0.74 -7.87 -0.03 0 0 Z " fill="#052A56" transform="translate(326.3125,847.6875)"/>
<path d="M0 0 C0.88 0 1.76 0.01 2.66 0.01 C18.56 0.29 32.72 6.11 44.38 16.94 C56.3 29.38 60.53 45.68 60.42 62.49 C60.24 65.45 59.74 68.39 59.25 71.31 C32.85 71.31 6.45 71.31 -20.75 71.31 C-17.78 78.01 -17.78 78.01 -13.38 82.62 C-12.83 83.07 -12.29 83.52 -11.73 83.99 C-5.77 87.98 -1.38 88.76 5.62 88.62 C6.44 88.63 7.25 88.63 8.09 88.63 C17.1 88.56 23.5 86.53 30.95 81.36 C33.25 80.31 33.25 80.31 35.35 80.92 C37.39 82.41 38.84 83.92 40.44 85.88 C43.88 89.99 47.66 93.61 51.62 97.23 C53.25 99.31 53.25 99.31 53.29 101.33 C49.79 108.02 41.03 112.49 34.25 115.31 C33.62 115.59 32.98 115.86 32.33 116.14 C16.71 122.49 -2.54 122.78 -18.27 116.79 C-33.84 110.18 -45.73 100.32 -52.32 84.46 C-58.08 70.02 -59.6 52.92 -54 38.09 C-53.59 37.17 -53.18 36.26 -52.75 35.31 C-52.33 34.37 -51.9 33.42 -51.46 32.44 C-44.44 18.33 -32.53 7.68 -17.75 2.31 C-11.72 0.51 -6.28 -0.04 0 0 Z " fill="#042956" transform="translate(646.75,847.6875)"/>
<path d="M0 0 C1.46 0.49 1.46 0.49 2.95 1 C16.31 5.95 27.31 15.88 33.34 28.89 C34.33 31.58 35.18 34.26 36 37 C36.99 39.97 37.98 42.94 39 46 C39 53.26 39 60.52 39 68 C12.27 68 -14.46 68 -42 68 C-37.76 76.5 -37.76 76.5 -31 82 C-30.39 82.42 -29.78 82.83 -29.14 83.26 C-21.37 87.56 -10.65 87.47 -2.18 85.27 C0.02 84.33 1.97 83.28 4 82 C4.74 81.54 5.48 81.09 6.24 80.62 C7.63 79.75 9.01 78.87 10.37 77.95 C12 77 12 77 14 77 C15.34 78.36 15.34 78.36 16.94 80.31 C19.16 82.96 21.44 85.46 23.94 87.84 C24.45 88.32 24.95 88.8 25.47 89.3 C26.48 90.26 27.5 91.21 28.53 92.14 C29.94 93.48 29.94 93.48 32 96 C32.03 98.73 31.29 99.66 29.54 101.71 C14.12 115.12 -3.16 118.28 -23 117 C-38.94 115.7 -53.08 107.53 -64 96 C-76.54 79.88 -78.21 62.69 -77 43 C-76.23 38.59 -75.01 34.98 -73 31 C-72.56 30.07 -72.13 29.13 -71.68 28.17 C-64.19 13.22 -52.78 5.15 -37.61 -0.84 C-25.62 -4.7 -11.79 -4.31 0 0 Z " fill="#047AE6" transform="translate(1089,852)"/>
<path d="M0 0 C0.92 0.43 1.84 0.87 2.79 1.32 C11.58 5.98 19.08 13.56 22.22 23.13 C25.24 34.19 25.28 45.53 25.2 56.9 C25.19 58.47 25.19 60.04 25.19 61.61 C25.18 65.7 25.16 69.79 25.14 73.87 C25.11 78.8 25.1 83.73 25.09 88.67 C25.07 96.11 25.03 103.55 25 111 C14.11 111 3.22 111 -8 111 C-8 107.37 -8 103.74 -8 100 C-8.94 100.8 -8.94 100.8 -9.91 101.61 C-22.31 111.84 -33.89 115.31 -50.02 114.23 C-61.23 112.93 -69.64 106.52 -76.62 98.03 C-82.04 90.2 -84.07 80.39 -83 71 C-81.18 61.06 -75.99 54.04 -68.35 47.61 C-55.05 38.51 -36.33 37.75 -20.86 40.64 C-18.18 41.31 -15.6 42.06 -13 43 C-11.51 43.5 -11.51 43.5 -10 44 C-10.27 38 -10.81 33.62 -15 29 C-23 23.78 -31.64 23.12 -41 24 C-48.44 25.6 -55.52 28 -62 32 C-62.66 32 -63.32 32 -64 32 C-65.87 28.43 -67.72 24.84 -69.56 21.25 C-70.1 20.23 -70.63 19.22 -71.18 18.17 C-71.93 16.7 -71.93 16.7 -72.69 15.2 C-73.16 14.3 -73.62 13.4 -74.1 12.47 C-75.1 9.74 -75.19 8.63 -74 6 C-54.09 -7.47 -21.66 -10.95 0 0 Z " fill="#047AE5" transform="translate(908,854)"/>
<path d="M0 0 C34.98 0 69.96 0 106 0 C106 10.89 106 21.78 106 33 C83.56 33 61.12 33 38 33 C38 42.24 38 51.48 38 61 C58.13 61 78.26 61 99 61 C99 71.56 99 82.12 99 93 C78.87 93 58.74 93 38 93 C38 112.14 38 131.28 38 151 C25.46 151 12.92 151 0 151 C0 101.17 0 51.34 0 0 Z " fill="#067BE5" transform="translate(721,814)"/>
<path d="M0 0 C11.88 0 23.76 0 36 0 C36.01 4.94 36.03 9.87 36.04 14.96 C36.06 18.11 36.08 21.25 36.11 24.39 C36.15 29.38 36.19 34.36 36.2 39.34 C36.2 43.36 36.23 47.38 36.27 51.4 C36.29 52.93 36.29 54.45 36.29 55.98 C36.26 66.33 37.03 74.91 44.56 82.62 C50.36 84.94 56.42 85.08 62.41 83.27 C68.66 80.4 71.72 76.2 74.36 69.9 C75.37 66.91 75.4 64.1 75.43 60.96 C75.44 60.3 75.45 59.63 75.46 58.95 C75.49 56.78 75.5 54.61 75.51 52.44 C75.53 50.93 75.55 49.41 75.57 47.9 C75.61 43.93 75.64 39.96 75.67 36 C75.7 31.23 75.76 26.46 75.81 21.69 C75.89 14.46 75.94 7.23 76 0 C87.55 0 99.1 0 111 0 C111 37.95 111 75.9 111 115 C99.45 115 87.9 115 76 115 C76 110.71 76 106.42 76 102 C75.34 102 74.68 102 74 102 C73.75 102.59 73.5 103.18 73.25 103.78 C69.73 110.03 62.13 114.18 55.48 116.34 C43.34 118.65 29.68 118.82 19 112 C8.19 104.55 3.22 93.62 0.37 81.07 C-0.84 74.26 -0.48 67.24 -0.39 60.35 C-0.38 58.6 -0.38 56.85 -0.37 55.1 C-0.36 50.54 -0.32 45.98 -0.27 41.42 C-0.23 35.92 -0.21 30.42 -0.18 24.92 C-0.15 16.62 -0.07 8.31 0 0 Z " fill="#042854" transform="translate(398,851)"/>
<path d="M0 0 C11.55 0 23.1 0 35 0 C35 9.57 35 19.14 35 29 C43.25 29 51.5 29 60 29 C60 38.57 60 48.14 60 58 C51.75 58 43.5 58 35 58 C35.07 64.44 35.16 70.88 35.26 77.32 C35.3 79.51 35.32 81.7 35.35 83.89 C35.38 87.05 35.43 90.2 35.49 93.35 C35.49 94.33 35.5 95.3 35.51 96.31 C35.64 102.51 36.37 107.07 40.67 111.86 C44.13 113.55 47.5 113.32 51.25 113.19 C53.81 113.13 56.37 113.06 59 113 C59 122.57 59 132.14 59 142 C46.1 146.3 31.91 148.85 19 143 C9.62 138.24 4.49 130.75 1 121 C0.2 116.98 -0.12 113.18 -0.11 109.09 C-0.11 107.95 -0.11 106.8 -0.11 105.63 C-0.11 103.81 -0.11 103.81 -0.1 101.95 C-0.1 100.69 -0.09 99.43 -0.09 98.14 C-0.09 94.81 -0.08 91.49 -0.07 88.16 C-0.06 84.77 -0.05 81.37 -0.05 77.97 C-0.04 71.31 -0.02 64.66 0 58 C-5.28 58 -10.56 58 -16 58 C-16 48.43 -16 38.86 -16 29 C-10.72 29 -5.44 29 0 29 C0 19.43 0 9.86 0 0 Z " fill="#032853" transform="translate(530,822)"/>
<path d="M0 0 C10.24 5.09 18.36 13.03 22.81 23.62 C27.56 38.46 22.64 51.17 15.95 64.38 C-0.81 96.63 -0.81 96.63 -11.62 107.44 C-13.83 107.97 -13.83 107.97 -16.62 107.44 C-18.93 105.19 -20.61 102.55 -22.38 99.88 C-22.9 99.1 -23.42 98.33 -23.96 97.54 C-28.4 90.95 -32.58 84.21 -36.53 77.33 C-37.67 75.36 -38.83 73.42 -40 71.47 C-48.02 57.97 -54.57 43.5 -51.62 27.44 C-49.05 18.64 -43.84 11.04 -36.62 5.44 C-35.38 4.43 -35.38 4.43 -34.12 3.4 C-24.35 -3.44 -11.17 -3.98 0 0 Z " fill="#0F589E" transform="translate(479.625,373.5625)"/>
<path d="M0 0 C0 10.89 0 21.78 0 33 C-4.18 33.31 -4.18 33.31 -8.44 33.62 C-15.84 34.35 -21.57 35.53 -27 41 C-31.6 46.66 -33.23 52.23 -33.32 59.46 C-33.34 60.73 -33.36 61.99 -33.38 63.29 C-33.39 64.65 -33.4 66.01 -33.41 67.37 C-33.43 68.77 -33.45 70.17 -33.47 71.58 C-33.52 75.26 -33.56 78.94 -33.6 82.62 C-33.64 86.38 -33.69 90.14 -33.74 93.9 C-33.84 101.27 -33.92 108.63 -34 116 C-38.82 116.02 -43.65 116.04 -48.47 116.05 C-50.11 116.06 -51.76 116.07 -53.4 116.08 C-55.75 116.09 -58.11 116.09 -60.46 116.1 C-61.2 116.1 -61.94 116.11 -62.7 116.11 C-64.47 116.11 -66.23 116.06 -68 116 C-69 115 -69 115 -69.12 113.1 C-69.12 112.26 -69.12 111.42 -69.12 110.55 C-69.12 109.59 -69.12 108.63 -69.12 107.64 C-69.12 106.58 -69.12 105.52 -69.11 104.42 C-69.11 103.31 -69.11 102.2 -69.11 101.05 C-69.11 97.36 -69.11 93.66 -69.1 89.96 C-69.1 87.41 -69.09 84.86 -69.09 82.3 C-69.09 76.25 -69.08 70.2 -69.07 64.15 C-69.06 57.27 -69.06 50.38 -69.05 43.5 C-69.04 29.33 -69.02 15.17 -69 1 C-57.45 1 -45.9 1 -34 1 C-33.5 8.92 -33.5 8.92 -33 17 C-32.17 15.8 -31.35 14.61 -30.5 13.38 C-22.22 2.37 -13.76 0 0 0 Z " fill="#067CE6" transform="translate(1013,850)"/>
<path d="M0 0 C1.21 -0.01 2.43 -0.03 3.68 -0.04 C7.05 0.18 9.25 0.42 12.12 2.19 C13.15 4.52 13.15 4.52 13.12 7.19 C8.23 16.01 -0.84 20.47 -9.43 24.91 C-13.18 26.87 -16.89 28.91 -20.6 30.94 C-22.54 32 -24.48 33.06 -26.42 34.11 C-27.32 34.6 -28.21 35.09 -29.14 35.59 C-29.93 36.02 -30.72 36.45 -31.54 36.89 C-32.31 37.32 -33.08 37.75 -33.88 38.19 C-34.76 38.68 -35.65 39.17 -36.56 39.68 C-39.73 41.74 -40.64 43.97 -42.25 47.38 C-42.69 48.29 -42.69 48.29 -43.13 49.23 C-47.05 57.52 -50.79 65.94 -54.18 74.47 C-56.74 80.7 -58.9 83.92 -64.88 87.19 C-65.53 87.19 -66.19 87.19 -66.88 87.19 C-67.07 82.98 -67.26 78.77 -67.44 74.56 C-67.52 72.78 -67.52 72.78 -67.61 70.96 C-67.66 69.8 -67.7 68.65 -67.75 67.46 C-67.82 65.87 -67.82 65.87 -67.9 64.26 C-67.87 61.13 -67.47 58.25 -66.88 55.19 C-67.53 55.43 -68.18 55.68 -68.86 55.93 C-70.8 56.67 -72.75 57.4 -74.7 58.13 C-76.91 58.96 -79.11 59.8 -81.32 60.64 C-90.72 64.2 -90.72 64.2 -95.41 65.58 C-103.11 67.82 -103.11 67.82 -108 73.81 C-108.29 74.57 -108.58 75.32 -108.88 76.1 C-110.12 78.7 -111.38 79.78 -113.88 81.19 C-115.36 80.69 -115.36 80.69 -116.88 80.19 C-117.21 77.55 -117.53 74.91 -117.88 72.19 C-120.18 72.19 -122.5 72.19 -124.88 72.19 C-124.71 71.44 -124.54 70.7 -124.38 69.94 C-123.76 67 -123.76 67 -123.88 63.19 C-125.85 60.8 -125.85 60.8 -128.38 58.56 C-129.91 57.14 -131.42 55.69 -132.88 54.19 C-132.88 53.53 -132.88 52.87 -132.88 52.19 C-133.53 52.19 -134.2 52.19 -134.88 52.19 C-133.88 49.19 -133.88 49.19 -130.88 47.19 C-124.87 46.48 -120.25 48.81 -114.88 51.14 C-110.12 53.08 -106.98 53.66 -101.88 52.19 C-98.15 50.38 -94.61 48.31 -91.06 46.19 C-89.18 45.08 -87.3 43.98 -85.42 42.88 C-84.18 42.14 -84.18 42.14 -82.92 41.39 C-81.6 40.61 -80.25 39.87 -78.88 39.19 C-78.88 38.53 -78.88 37.87 -78.88 37.19 C-79.59 36.79 -80.3 36.4 -81.03 36 C-84.29 34.19 -87.55 32.38 -90.81 30.56 C-91.93 29.95 -93.05 29.33 -94.2 28.69 C-100.62 25.11 -106.85 21.39 -112.88 17.19 C-111.88 14.19 -111.88 14.19 -110.25 13 C-102.75 10.43 -94.7 13.43 -87.31 15.19 C-84.92 15.76 -82.52 16.32 -80.12 16.88 C-79.07 17.13 -78.01 17.38 -76.92 17.64 C-73.09 18.33 -69.44 18.97 -65.88 17.19 C-64 17.02 -64 17.02 -61.88 17 C-61.17 16.99 -60.47 16.97 -59.75 16.96 C-57.88 17.19 -57.88 17.19 -55.88 19.19 C-55.88 20.18 -55.88 21.17 -55.88 22.19 C-50.13 22.63 -46.65 21.41 -41.88 18.44 C-40.49 17.62 -39.1 16.8 -37.71 15.98 C-36.57 15.32 -36.57 15.32 -35.41 14.63 C-30.53 11.85 -25.54 9.28 -20.56 6.69 C-19.55 6.16 -18.55 5.63 -17.51 5.09 C-11.34 1.88 -7.06 0.04 0 0 Z " fill="#133864" transform="translate(753.875,261.8125)"/>
<path d="M0 0 C6.21 5.09 10.74 12.24 11.63 20.29 C12.33 32.29 9.25 40.62 3.25 50.88 C2.79 51.66 2.33 52.45 1.85 53.26 C-4.67 64.23 -11.68 75.8 -20.75 84.88 C-24.21 84.81 -25.5 84.13 -27.97 81.67 C-58.41 41.01 -58.41 41.01 -56.75 18.88 C-54.84 9.7 -48.47 2.72 -41.08 -2.65 C-28.08 -10.88 -12.13 -8.52 0 0 Z " fill="#0F569A" transform="translate(812.75,376.125)"/>
<path d="M0 0 C0.05 4.82 0.09 9.64 0.11 14.46 C0.12 16.1 0.13 17.73 0.15 19.37 C0.3 33.39 -0.05 47 -9.93 58.18 C-18.46 65.91 -27.19 69.41 -38.68 69.2 C-41.65 68.94 -44.2 67.99 -47 67 C-52.42 66.63 -56.39 67.58 -61.44 69.5 C-62.39 69.86 -62.39 69.86 -63.37 70.22 C-64.91 70.8 -66.46 71.4 -68 72 C-67.96 67.11 -67.88 62.22 -67.79 57.33 C-67.76 55.68 -67.74 54.02 -67.73 52.36 C-67.6 38.06 -66.61 24.72 -56 14 C-47.21 5.85 -36.72 3.4 -25.12 1.75 C-24.03 1.58 -22.94 1.4 -21.81 1.23 C-14.49 0.14 -7.39 -0.21 0 0 Z " fill="#F7F6F6" transform="translate(360,872)"/>
<path d="M0 0 C5.44 -0.08 10.89 -0.16 16.5 -0.25 C18.2 -0.29 19.9 -0.32 21.66 -0.36 C35.57 -0.54 35.57 -0.54 42 4 C46.41 8.37 48.16 11.56 48.25 17.75 C48.17 24.43 47.04 27.92 42.31 32.75 C34.57 38.59 24.16 37.23 15 37.12 C10.05 37.08 5.1 37.04 0 37 C0 24.79 0 12.58 0 0 Z " fill="#FAFAFB" transform="translate(173,847)"/>
<path d="M0 0 C1.86 0.03 1.86 0.03 3.75 0.06 C4.41 1.38 5.07 2.7 5.75 4.06 C0.8 5.55 0.8 5.55 -4.25 7.06 C-4.01 9.61 -4.01 9.61 -2.25 12.06 C4.78 14.57 12.51 14.37 19.88 14.31 C20.91 14.32 21.94 14.33 23 14.34 C28.96 14.32 34.05 13.76 39.75 12.06 C41.08 11.72 42.41 11.39 43.75 11.06 C43.08 7.95 43.08 7.95 40.68 6.89 C39.86 6.56 39.04 6.22 38.19 5.88 C37.36 5.53 36.53 5.19 35.68 4.83 C35.05 4.58 34.41 4.32 33.75 4.06 C34.41 2.74 35.07 1.42 35.75 0.06 C44.51 0.4 54.18 1.46 61 7.56 C62.75 10.06 62.75 10.06 62.81 12.12 C59.28 18.56 53.38 20.12 46.75 22.06 C37.59 23.98 28.58 24.37 19.25 24.31 C17.43 24.32 17.43 24.32 15.57 24.34 C2.47 24.31 -10.05 23.15 -21.38 16.12 C-23.25 14.06 -23.25 14.06 -23.88 11.56 C-22.95 7.86 -21.49 7.07 -18.25 5.06 C-12.32 2.36 -6.59 -0.11 0 0 Z " fill="#105BA2" transform="translate(770.25,450.9375)"/>
<path d="M0 0 C0.66 1.32 1.32 2.64 2 4 C1.45 4.17 0.89 4.34 0.32 4.52 C-0.77 4.88 -0.77 4.88 -1.88 5.25 C-2.59 5.48 -3.31 5.71 -4.05 5.95 C-6.47 7.25 -7.02 8.49 -8 11 C-6.42 11.48 -4.83 11.96 -3.25 12.44 C-2.37 12.7 -1.49 12.97 -0.58 13.25 C12.02 16.93 24.91 15.91 37 11 C37.66 11 38.32 11 39 11 C38.26 8.61 37.53 7.29 35.31 6.07 C33.56 5.33 31.78 4.66 30 4 C30.66 2.68 31.32 1.36 32 0 C39.19 -0.84 45.61 1.83 52 5 C55.81 8.27 55.81 8.27 56.62 11.44 C55.87 14.53 54.55 15.92 52.02 17.8 C35.84 27.38 11.42 27.47 -6.53 23.69 C-13.58 21.72 -19.94 19.46 -25 14 C-25.75 11.5 -25.75 11.5 -25 9 C-17.99 1.82 -9.79 -0.19 0 0 Z " fill="#125CA1" transform="translate(450,471)"/>
<path d="M0 0 C-1.66 5.46 -4.08 10.37 -6.72 15.4 C-8.6 19.03 -10.27 22.6 -11.6 26.47 C-14.95 35.73 -18.52 40.32 -27.56 44.56 C-30.18 45.72 -32.81 46.83 -35.46 47.91 C-39.35 49.58 -43.04 51.58 -46.75 53.62 C-47.97 54.28 -49.2 54.94 -50.42 55.6 C-51.27 56.06 -52.12 56.52 -53 57 C-52.35 52.94 -51.05 49.53 -49.38 45.78 C-48.86 44.6 -48.33 43.42 -47.79 42.21 C-47.52 41.6 -47.24 40.99 -46.96 40.36 C-46.13 38.51 -45.3 36.65 -44.48 34.79 C-37.89 20.06 -37.89 20.06 -31.08 16.41 C-30.51 16.09 -29.93 15.78 -29.34 15.45 C-27.5 14.46 -25.66 13.48 -23.81 12.5 C-21.99 11.52 -20.17 10.54 -18.35 9.55 C-16.62 8.61 -14.88 7.68 -13.14 6.74 C-10.45 5.25 -7.85 3.69 -5.26 2.03 C-2 0 -2 0 0 0 Z " fill="#F88C12" transform="translate(354,878)"/>
<path d="M0 0 C5.49 2.43 9.18 5.87 11.9 11.3 C12.43 17.51 12.64 23.06 8.9 28.3 C4.37 32.63 0.81 34.97 -5.41 35.67 C-11.2 35.08 -15.37 33.03 -19.48 28.92 C-22.63 23.82 -23.72 19.28 -23.1 13.3 C-21.32 7.14 -17.9 3.63 -12.46 0.37 C-8.05 -1.63 -4.67 -1.56 0 0 Z " fill="#F7F9FB" transform="translate(471.1015625,392.703125)"/>
<path d="M0 0 C1.11 0.01 1.11 0.01 2.24 0.02 C8.9 0.23 14.76 1.86 20.88 4.5 C21.38 11.47 21.08 15.81 16.88 21.5 C10.99 27.09 5.68 27.85 -2.18 27.68 C-6.51 27.42 -10.33 27.18 -13.62 24.1 C-16.44 20.83 -18.03 18.53 -18.44 14.25 C-18.06 9.76 -17.02 7.93 -14.12 4.5 C-9.5 0.75 -5.82 -0.15 0 0 Z " fill="#F5FAFD" transform="translate(878.125,914.5)"/>
<path d="M0 0 C3.34 -0.06 6.68 -0.12 10.12 -0.19 C11.69 -0.23 11.69 -0.23 13.28 -0.27 C18.59 -0.32 22.49 -0.13 27 3 C29.78 5.84 30.45 7.93 30.5 11.88 C30.4 15.52 29.96 17.75 27.69 20.62 C25 23 25 23 22 23 C22.65 23.92 23.3 24.83 23.97 25.77 C24.81 26.97 25.66 28.17 26.5 29.38 C26.93 29.98 27.36 30.58 27.8 31.2 C31 35.77 31 35.77 31 38 C26.79 38.97 26.79 38.97 24 38 C20.4 34.13 17.37 29.74 15 25 C12.87 24.53 12.87 24.53 10.44 24.38 C8.97 24.25 7.51 24.13 6 24 C6 28.62 6 33.24 6 38 C4.02 38 2.04 38 0 38 C0 25.46 0 12.92 0 0 Z " fill="#13335C" transform="translate(463,1004)"/>
<path d="M0 0 C3.3 -0.08 6.6 -0.16 10 -0.25 C11.02 -0.29 12.05 -0.32 13.1 -0.36 C19.27 -0.43 23.87 0.46 29 4 C31.26 6.4 31.95 7.86 32.09 11.14 C31.77 16.19 30.84 19.48 27 23 C22.78 25.2 18.84 25.24 14.19 25.12 C13.15 25.11 13.15 25.11 12.09 25.1 C10.39 25.07 8.7 25.04 7 25 C7 29.29 7 33.58 7 38 C4.69 38 2.38 38 0 38 C0 25.46 0 12.92 0 0 Z " fill="#18375F" transform="translate(197,1004)"/>
<path d="M0 0 C1.46 0.68 1.46 0.68 2.95 1.37 C3.94 1.83 4.92 2.28 5.94 2.75 C7.06 3.27 7.06 3.27 8.2 3.81 C6.06 6.14 4.01 7.6 1.2 9.05 C0.41 9.47 -0.39 9.89 -1.21 10.32 C-2.49 11 -2.49 11 -3.8 11.68 C-12.16 16.16 -19.99 21.14 -27.7 26.66 C-28.45 27.18 -29.19 27.71 -29.95 28.25 C-30.6 28.72 -31.25 29.19 -31.92 29.68 C-33.94 30.9 -35.46 31.5 -37.8 31.81 C-40.48 30.92 -42.97 29.98 -45.55 28.87 C-46.24 28.58 -46.94 28.29 -47.66 27.99 C-49.38 27.27 -51.09 26.54 -52.8 25.81 C-51.68 22.45 -51.36 22.26 -48.46 20.6 C-47.74 20.19 -47.01 19.77 -46.27 19.34 C-45.48 18.9 -44.68 18.45 -43.86 18 C-43.04 17.53 -42.21 17.06 -41.36 16.58 C-38.51 14.98 -35.66 13.39 -32.8 11.81 C-31.68 11.18 -30.56 10.56 -29.41 9.91 C-25.91 7.94 -22.38 6 -18.86 4.06 C-17.73 3.43 -16.6 2.79 -15.43 2.14 C-14.37 1.56 -13.3 0.98 -12.21 0.39 C-11.26 -0.14 -10.31 -0.66 -9.34 -1.19 C-5.49 -2.7 -3.67 -1.56 0 0 Z " fill="#F2F4F7" transform="translate(568.796875,553.19140625)"/>
<path d="M0 0 C4.1 1.69 7.07 3.95 10 7.25 C11.74 12.04 12.03 16.47 10.09 21.25 C7.52 25.75 5.09 28.46 0 30 C-5.1 30.66 -8.81 30.61 -13.44 28.25 C-17.24 24.91 -19.64 22.13 -20.24 16.95 C-20.42 11.43 -19.8 8.3 -16 4 C-11.08 -0.45 -6.38 -1.14 0 0 Z " fill="#F6F8FA" transform="translate(795,386)"/>
<path d="M0 0 C6.81 4.2 9.08 8.77 11.26 16.39 C-4.58 16.39 -20.42 16.39 -36.74 16.39 C-33.37 6.3 -31.06 4.14 -22.99 -1.54 C-15.31 -4.05 -7.32 -3.33 0 0 Z " fill="#F3F4F6" transform="translate(661.73828125,878.60546875)"/>
<path d="M0 0 C5.34 3.42 8.07 6.98 10 13 C10 13.99 10 14.98 10 16 C-5.18 16 -20.36 16 -36 16 C-34.92 9.5 -33.59 6.53 -29 2 C-19.95 -4.46 -9.92 -4.9 0 0 Z " fill="#F5F9FD" transform="translate(1083,880)"/>
<path d="M0 0 C3.71 1.26 6.33 3.24 8.94 6.19 C10.88 11.34 10.61 16.03 9 21.25 C6.26 25.02 3.26 27.15 -1 29 C-5.96 29.78 -9.29 28.93 -13.42 26.25 C-16.81 23.57 -18.6 20.92 -19.48 16.67 C-19.8 12.7 -19.65 10.04 -17.5 6.61 C-12.07 0.31 -8.27 -0.89 0 0 Z " fill="#163359" transform="translate(377,1014)"/>
<path d="M0 0 C3.68 1.28 6.3 3.23 8.94 6.12 C10.54 10.45 10.66 14.45 10 19 C7.39 24.13 4.46 27.18 -1 29 C-6.54 29.65 -9.8 28.57 -14.27 25.48 C-17.4 22.8 -18.67 20.09 -19.31 16.05 C-19.63 10.92 -18.37 8.01 -15 4 C-10.68 -0.83 -6.11 -0.94 0 0 Z " fill="#0F2C52" transform="translate(859,1014)"/>
<path d="M0 0 C4.35 2.17 7.56 4.78 10 9 C10.7 13.3 10.52 16.82 8.75 20.81 C5.59 24.77 3.05 27.76 -2 29 C-7.22 29.27 -10.93 28.49 -15 25.12 C-17.87 22.48 -18.86 20.44 -19.24 16.48 C-19.44 8.78 -19.44 8.78 -17.31 5 C-11.71 0.15 -7.39 -1.07 0 0 Z " fill="#15335C" transform="translate(517,1014)"/>
<path d="M0 0 C4.43 2.14 7.2 4.39 9 9 C9.85 13.58 10.02 17.33 7.54 21.39 C4.24 25.26 1.98 27.53 -3.2 28.34 C-8.5 28.68 -11.46 28.21 -15.56 24.69 C-19.01 21.38 -20.16 18.56 -20.5 13.81 C-20.48 8.64 -18.21 6.14 -14.73 2.53 C-10.54 -1.18 -5.31 -0.54 0 0 Z " fill="#133159" transform="translate(736,1014)"/>
<path d="M0 0 C1.98 0 3.96 0 6 0 C6.33 5.61 6.66 11.22 7 17 C8.34 15.49 9.68 13.99 11.06 12.44 C12.3 11.08 12.3 11.08 13.56 9.69 C15.03 8.07 16.48 6.44 17.91 4.78 C21.03 1.32 22.14 0.1 26.94 -0.44 C27.95 -0.29 28.96 -0.15 30 0 C28.18 4.68 24.36 7.65 20.72 10.93 C19.04 12.48 19.04 12.48 17 15 C17.31 18.38 18.87 20.43 20.94 23.04 C21.82 24.16 21.82 24.16 22.71 25.3 C23.32 26.07 23.93 26.83 24.56 27.62 C25.78 29.16 26.99 30.69 28.19 32.23 C28.73 32.9 29.27 33.58 29.82 34.28 C31 36 31 36 31 38 C27.9 38.5 27.9 38.5 24 38 C21.37 35.68 19.52 32.9 17.56 30 C17.02 29.24 16.48 28.47 15.92 27.69 C14.59 25.81 13.29 23.91 12 22 C8.77 24.13 7.19 25.17 6.29 29.02 C6.26 30.08 6.22 31.15 6.19 32.25 C6.12 33.87 6.12 33.87 6.04 35.52 C6.03 36.34 6.01 37.16 6 38 C4.02 38 2.04 38 0 38 C0 25.46 0 12.92 0 0 Z " fill="#143660" transform="translate(651,1004)"/>
<path d="M0 0 C3.2 1.28 5.42 2.85 7 6 C7.08 7.67 7.11 9.34 7.1 11.01 C7.09 11.99 7.09 12.98 7.09 14 C7.08 15.03 7.07 16.06 7.06 17.12 C7.06 18.17 7.05 19.21 7.05 20.28 C7.04 22.85 7.02 25.43 7 28 C4 28 1 28 -2 28 C-2.66 28.33 -3.32 28.66 -4 29 C-8.49 29.45 -11.71 29.69 -15.5 27.06 C-18.46 23.44 -18.77 21.57 -18.46 17.02 C-18 15 -18 15 -16.19 13 C-12.2 11.18 -9.17 10.89 -4.81 10.94 C-3.18 10.95 -3.18 10.95 -1.52 10.96 C-0.69 10.98 0.14 10.99 1 11 C-0.31 7.88 -0.31 7.88 -3 6 C-7.17 5.84 -10.94 6.02 -15 7 C-15.33 5.68 -15.66 4.36 -16 3 C-11.26 -1.28 -6.07 -0.75 0 0 Z " fill="#19385E" transform="translate(266,1014)"/>
<path d="M0 0 C1.98 0 3.96 0 6 0 C6.84 2.25 7.67 4.5 8.5 6.75 C8.74 7.38 8.98 8.02 9.22 8.67 C10.45 12.03 11 14.37 11 18 C11.66 18 12.32 18 13 18 C13.1 17.45 13.2 16.91 13.3 16.35 C14.46 10.48 16.39 5.37 19 0 C20.65 0 22.3 0 24 0 C24.82 2.08 25.63 4.17 26.44 6.25 C26.89 7.41 27.34 8.57 27.81 9.77 C28.7 12.19 29.46 14.48 30 17 C32.46 11.73 34.48 6.62 36 1 C37 0 37 0 40.06 -0.06 C41.52 -0.03 41.52 -0.03 43 0 C40.91 6.41 38.66 12.74 36.31 19.06 C35.99 19.93 35.67 20.79 35.34 21.69 C34.56 23.79 33.78 25.9 33 28 C31.02 28 29.04 28 27 28 C26.35 25.94 25.71 23.88 25.06 21.81 C24.7 20.66 24.34 19.52 23.97 18.33 C23.16 15.56 22.51 12.84 22 10 C21.34 10 20.68 10 20 10 C19.89 10.86 19.78 11.72 19.66 12.6 C18.97 16.14 17.87 19.08 16.44 22.38 C15.98 23.43 15.53 24.49 15.06 25.59 C14.71 26.38 14.36 27.18 14 28 C12.35 28 10.7 28 9 28 C8.8 27.38 8.6 26.76 8.39 26.12 C7.47 23.31 6.55 20.5 5.62 17.69 C5.15 16.22 5.15 16.22 4.66 14.73 C4.35 13.79 4.05 12.85 3.73 11.89 C3.3 10.59 3.3 10.59 2.87 9.27 C2.01 6.78 2.01 6.78 0 4 C0 2.68 0 1.36 0 0 Z " fill="#11315A" transform="translate(747,1014)"/>
<path d="M0 0 C5.02 3.99 5.02 3.99 5.47 7.05 C5.45 7.95 5.43 8.86 5.42 9.79 C5.41 10.78 5.4 11.76 5.39 12.77 C5.36 13.8 5.34 14.82 5.31 15.88 C5.29 17.43 5.29 17.43 5.27 19.01 C5.24 21.57 5.19 24.13 5.12 26.69 C2.12 26.69 -0.88 26.69 -3.88 26.69 C-4.87 27.02 -5.86 27.35 -6.88 27.69 C-11.33 28.19 -13.39 27.97 -17.31 25.69 C-20.31 22.18 -20.31 22.18 -20.5 18.62 C-19.83 14.39 -19.26 13.18 -15.88 10.69 C-12.99 9.25 -10.46 9.59 -7.25 9.62 C-6.06 9.63 -4.87 9.64 -3.65 9.65 C-2.73 9.66 -1.82 9.68 -0.88 9.69 C-2.18 6.57 -2.18 6.57 -4.88 4.69 C-9.04 4.53 -12.82 4.7 -16.88 5.69 C-17.5 3.81 -17.5 3.81 -17.88 1.69 C-13.47 -2.72 -5.41 -2.47 0 0 Z " fill="#0E305B" transform="translate(993.875,1015.3125)"/>
<path d="M0 0 C4.71 1.99 7.72 5.44 10 10 C10 11.98 10 13.96 10 16 C2.74 16 -4.52 16 -12 16 C-9.5 20.98 -9.5 20.98 -6 23 C-1.94 22.62 2.01 21.85 6 21 C6.66 21.99 7.32 22.98 8 24 C3.34 27.9 0.26 29.36 -5.94 29.29 C-10.23 28.69 -13.04 26.09 -15.81 22.94 C-18.47 18.6 -19 13.93 -18 9 C-13.15 1.43 -8.81 -0.84 0 0 Z " fill="#092A56" transform="translate(1044,1014)"/>
<path d="M0 0 C4.14 0.48 7.5 2.91 11 5 C8.17 7.27 5.45 8.82 2.11 10.23 C1.16 10.64 0.21 11.05 -0.77 11.47 C-1.77 11.89 -2.78 12.31 -3.81 12.75 C-12.29 16.33 -12.29 16.33 -20.61 20.25 C-21.27 20.58 -21.94 20.91 -22.63 21.25 C-24.38 22.13 -26.11 23.02 -27.84 23.92 C-32.35 25.46 -35.88 24.93 -40.21 23.03 C-41.81 22.02 -43.4 21.01 -45 20 C-45 19.34 -45 18.68 -45 18 C-32.24 12.63 -19.47 7.4 -6.37 2.92 C-2.92 1.93 -2.92 1.93 0 0 Z " fill="#EFF1F4" transform="translate(624,525)"/>
<path d="M0 0 C2 0 2 0 4.12 2 C4.56 2.45 4.99 2.91 5.44 3.38 C7.91 5.95 10.49 8.43 13.04 10.94 C15.18 13.19 17.09 15.55 19 18 C-4.79 31.09 -4.79 31.09 -15 36 C-14.35 31.92 -13.04 28.51 -11.35 24.75 C-10.82 23.56 -10.29 22.38 -9.74 21.16 C-9.18 19.92 -8.62 18.68 -8.06 17.44 C-7.51 16.19 -6.95 14.95 -6.39 13.71 C-2.02 3.96 -2.02 3.96 0 0 Z " fill="#CE7015" transform="translate(316,899)"/>
<path d="M0 0 C8.91 0 17.82 0 27 0 C27 1.98 27 3.96 27 6 C20.07 6 13.14 6 6 6 C6 9.63 6 13.26 6 17 C11.94 17 17.88 17 24 17 C24 18.98 24 20.96 24 23 C18.39 23 12.78 23 7 23 C7 27.95 7 32.9 7 38 C4.69 38 2.38 38 0 38 C0 25.46 0 12.92 0 0 Z " fill="#4D6988" transform="translate(945,1004)"/>
<path d="M0 0 C1.86 0.03 1.86 0.03 3.75 0.06 C4.41 1.38 5.07 2.7 5.75 4.06 C0.8 5.55 0.8 5.55 -4.25 7.06 C-4.01 9.61 -4.01 9.61 -2.25 12.06 C5.34 14.89 13.92 14.3 21.88 14.19 C23.12 14.18 24.36 14.17 25.64 14.16 C28.68 14.14 31.71 14.1 34.75 14.06 C31.93 16.88 30.04 16.33 26.1 16.37 C24.75 16.4 23.4 16.42 22.06 16.45 C19.93 16.48 17.81 16.5 15.68 16.52 C13.63 16.54 11.58 16.58 9.54 16.62 C8.31 16.63 7.08 16.65 5.81 16.66 C2.75 16.8 2.75 16.8 0.83 18.59 C0.47 19.08 0.12 19.56 -0.25 20.06 C0.41 21.05 1.07 22.04 1.75 23.06 C-6.9 22.69 -14 20.7 -21.38 16.12 C-23.25 14.06 -23.25 14.06 -23.88 11.56 C-22.95 7.86 -21.49 7.07 -18.25 5.06 C-12.32 2.36 -6.59 -0.11 0 0 Z " fill="#1D63A4" transform="translate(770.25,450.9375)"/>
<path d="M0 0 C3.16 -0.47 3.16 -0.47 7 0 C9.34 2.17 10.83 4.76 12.44 7.5 C12.88 8.22 13.33 8.93 13.79 9.67 C14.88 11.43 15.94 13.21 17 15 C20.23 12.04 22.2 9.07 24.31 5.25 C26.12 2.31 26.12 2.31 28 0 C31.94 -0.69 31.94 -0.69 35 0 C33.96 3.27 32.54 5.73 30.43 8.39 C22.72 18.23 20.34 25.52 21 38 C18.69 38 16.38 38 14 38 C14.04 37.03 14.09 36.06 14.13 35.06 C14.27 22.05 9.03 13.71 1.18 3.67 C0 2 0 2 0 0 Z " fill="#07234B" transform="translate(808,1004)"/>
<path d="M0 0 C3.16 -0.47 3.16 -0.47 7 0 C9.34 2.17 10.83 4.76 12.44 7.5 C12.88 8.22 13.33 8.93 13.79 9.67 C14.88 11.43 15.94 13.21 17 15 C20.23 12.04 22.2 9.07 24.31 5.25 C26.12 2.31 26.12 2.31 28 0 C31.94 -0.69 31.94 -0.69 35 0 C33.96 3.27 32.54 5.73 30.43 8.39 C22.72 18.23 20.34 25.52 21 38 C18.69 38 16.38 38 14 38 C14.07 36.98 14.13 35.96 14.2 34.91 C14.52 22.2 9.89 14.59 2.2 4.72 C1 3 1 3 0 0 Z " fill="#22416A" transform="translate(326,1004)"/>
<path d="M0 0 C1.98 0 3.96 0 6 0 C6.02 0.6 6.04 1.19 6.06 1.8 C6.16 4.49 6.26 7.18 6.38 9.88 C6.41 10.81 6.44 11.75 6.47 12.71 C6.51 13.61 6.55 14.51 6.59 15.43 C6.62 16.26 6.65 17.08 6.68 17.94 C6.83 20.22 6.83 20.22 9 22 C12.5 22.33 12.5 22.33 16 22 C18.44 19.56 18.29 18.79 18.41 15.43 C18.45 14.53 18.49 13.64 18.53 12.71 C18.56 11.78 18.59 10.84 18.62 9.88 C18.66 8.93 18.7 7.99 18.74 7.01 C18.84 4.67 18.92 2.34 19 0 C20.98 0 22.96 0 25 0 C25 9.24 25 18.48 25 28 C23.02 28 21.04 28 19 28 C19 27.34 19 26.68 19 26 C18.13 26.49 17.27 26.99 16.38 27.5 C12.78 29.1 10.87 29.58 7 29 C3.83 26.91 2.12 25.17 0 22 C-0.23 19.64 -0.23 19.64 -0.2 16.89 C-0.19 15.91 -0.18 14.93 -0.18 13.92 C-0.16 12.89 -0.14 11.87 -0.12 10.81 C-0.12 9.78 -0.11 8.74 -0.1 7.67 C-0.07 5.12 -0.04 2.56 0 0 Z " fill="#1C3961" transform="translate(532,1014)"/>
<path d="M0 0 C1.98 0 3.96 0 6 0 C6 9.24 6 18.48 6 28 C4.02 28 2.04 28 0 28 C0 27.34 0 26.68 0 26 C-0.66 26.49 -1.32 26.99 -2 27.5 C-5.8 29.4 -8.82 29.79 -13 29 C-15.81 27.21 -17.51 25.98 -19 23 C-19.08 21.33 -19.11 19.66 -19.1 17.99 C-19.09 17.01 -19.09 16.02 -19.09 15 C-19.08 13.97 -19.07 12.94 -19.06 11.88 C-19.06 10.83 -19.05 9.79 -19.05 8.72 C-19.04 6.15 -19.02 3.57 -19 1 C-17.02 1 -15.04 1 -13 1 C-12.97 1.6 -12.95 2.2 -12.92 2.82 C-12.81 5.53 -12.69 8.23 -12.56 10.94 C-12.52 11.88 -12.48 12.83 -12.44 13.8 C-12.4 14.7 -12.36 15.6 -12.32 16.53 C-12.28 17.36 -12.24 18.19 -12.21 19.05 C-12.21 21 -12.21 21 -11 22 C-6.97 22.32 -6.97 22.32 -3 22 C-0.95 18.92 -0.73 18.06 -0.59 14.55 C-0.55 13.7 -0.51 12.86 -0.47 11.98 C-0.44 11.1 -0.41 10.22 -0.38 9.31 C-0.34 8.42 -0.3 7.53 -0.26 6.61 C-0.16 4.41 -0.08 2.2 0 0 Z " fill="#12325B" transform="translate(894,1014)"/>
<path d="M0 0 C1.98 0 3.96 0 6 0 C6.33 0.66 6.66 1.32 7 2 C7.99 1.34 8.98 0.68 10 0 C13.77 -0.68 17.46 -0.83 20.89 1.02 C23.55 3.16 24.91 4.74 26 8 C26.08 9.55 26.11 11.11 26.1 12.67 C26.09 13.56 26.09 14.45 26.09 15.37 C26.08 16.3 26.07 17.23 26.06 18.19 C26.06 19.13 26.05 20.07 26.05 21.04 C26.04 23.36 26.02 25.68 26 28 C24.02 28 22.04 28 20 28 C19.67 21.07 19.34 14.14 19 7 C16.03 6.67 13.06 6.34 10 6 C6.73 9.26 6.73 9.26 6.49 13.45 C6.45 14.3 6.42 15.14 6.38 16.02 C6.36 16.9 6.34 17.78 6.31 18.69 C6.28 19.58 6.24 20.47 6.21 21.39 C6.13 23.59 6.06 25.8 6 28 C4.02 28 2.04 28 0 28 C0 18.76 0 9.52 0 0 Z " fill="#223E64" transform="translate(281,1014)"/>
<path d="M0 0 C1.98 0 3.96 0 6 0 C6 9.24 6 18.48 6 28 C4.02 28 2.04 28 0 28 C0 27.34 0 26.68 0 26 C-0.68 26.49 -1.36 26.99 -2.06 27.5 C-5.77 29.39 -7.88 29.58 -12 29 C-15.47 26.97 -17.7 24.89 -19 21 C-19.08 19.45 -19.11 17.89 -19.1 16.33 C-19.09 15.44 -19.09 14.55 -19.09 13.63 C-19.08 12.7 -19.07 11.77 -19.06 10.81 C-19.06 9.87 -19.05 8.93 -19.05 7.96 C-19.04 5.64 -19.02 3.32 -19 1 C-17.02 1 -15.04 1 -13 1 C-12.97 1.6 -12.95 2.2 -12.92 2.82 C-12.81 5.53 -12.69 8.23 -12.56 10.94 C-12.52 11.88 -12.48 12.83 -12.44 13.8 C-12.4 14.7 -12.36 15.6 -12.32 16.53 C-12.28 17.36 -12.24 18.19 -12.21 19.05 C-12.21 21 -12.21 21 -11 22 C-6.39 22.51 -6.39 22.51 -2.31 20.76 C-0.68 18.57 -0.58 17.27 -0.49 14.55 C-0.45 13.7 -0.42 12.86 -0.38 11.98 C-0.36 11.1 -0.34 10.22 -0.31 9.31 C-0.28 8.42 -0.24 7.53 -0.21 6.61 C-0.13 4.41 -0.06 2.2 0 0 Z " fill="#203F65" transform="translate(412,1014)"/>
<path d="M0 0 C1.98 0 3.96 0 6 0 C6 0.66 6 1.32 6 2 C6.99 1.34 7.98 0.68 9 0 C13.89 -0.71 17.81 -0.73 22.06 1.88 C24.97 5.07 25.12 6.78 25.1 11.01 C25.09 11.99 25.09 12.98 25.09 14 C25.08 15.03 25.07 16.06 25.06 17.12 C25.06 18.17 25.05 19.21 25.05 20.28 C25.04 22.85 25.02 25.43 25 28 C23.02 28 21.04 28 19 28 C18.98 27.4 18.96 26.81 18.94 26.2 C18.84 23.51 18.74 20.82 18.62 18.12 C18.59 17.19 18.56 16.25 18.53 15.29 C18.49 14.39 18.45 13.49 18.41 12.57 C18.38 11.74 18.35 10.92 18.32 10.06 C18.17 7.78 18.17 7.78 16 6 C11.95 5.66 10.45 5.7 7 8 C6.51 10.01 6.51 10.01 6.52 12.32 C6.49 13.16 6.46 14.01 6.43 14.88 C6.41 15.77 6.39 16.65 6.38 17.56 C6.32 19.31 6.27 21.07 6.21 22.82 C6.19 23.59 6.18 24.37 6.16 25.17 C6 27 6 27 5 28 C3.35 28 1.7 28 0 28 C0 18.76 0 9.52 0 0 Z " fill="#27446A" transform="translate(686,1014)"/>
<path d="M0 0 C3.79 2.04 7.05 4.1 9 8 C9 10.64 9 13.28 9 16 C2.07 16 -4.86 16 -12 16 C-11.67 17.65 -11.34 19.3 -11 21 C-6.21 22.6 -1.74 22.58 3 21 C3.66 20.67 4.32 20.34 5 20 C5.66 21.32 6.32 22.64 7 24 C3.65 27.66 0.61 28.21 -4.25 28.44 C-9.49 28.41 -12.04 27.21 -15.76 23.61 C-18.73 19.76 -18.08 15.6 -18 11 C-17.01 11.49 -17.01 11.49 -16 12 C-15.67 11.01 -15.34 10.02 -15 9 C-14.34 9 -13.68 9 -13 9 C-13 9.99 -13 10.98 -13 12 C-7.39 12 -1.78 12 4 12 C1.68 7.12 1.68 7.12 -1 6 C-2.54 5.78 -4.08 5.59 -5.62 5.44 C-6.44 5.35 -7.26 5.27 -8.1 5.18 C-8.73 5.12 -9.35 5.06 -10 5 C-10 3 -10 3 -8.94 1.38 C-5.89 -0.79 -3.65 -0.43 0 0 Z " fill="#0C2F58" transform="translate(604,1014)"/>
<path d="M0 0 C1.98 0 3.96 0 6 0 C6 2.31 6 4.62 6 7 C8.97 7 11.94 7 15 7 C15 8.98 15 10.96 15 13 C12.03 13 9.06 13 6 13 C6.14 15.48 6.29 17.96 6.44 20.44 C6.48 21.14 6.52 21.85 6.56 22.58 C6.48 26.09 6.48 26.09 8 29 C10.33 29.37 12.66 29.7 15 30 C15 31.65 15 33.3 15 35 C13.23 35.08 11.46 35.14 9.69 35.19 C8.7 35.22 7.72 35.26 6.7 35.29 C4 35 4 35 2.21 33.68 C-0.63 29.74 -0.11 25.44 -0.06 20.81 C-0.06 20.06 -0.05 19.31 -0.05 18.54 C-0.04 16.69 -0.02 14.85 0 13 C-1.65 13 -3.3 13 -5 13 C-5 11.02 -5 9.04 -5 7 C-3.35 7 -1.7 7 0 7 C0 4.69 0 2.38 0 0 Z " fill="#244268" transform="translate(567,1007)"/>
<path d="M0 0 C0.66 0.99 1.32 1.98 2 3 C1.32 3.22 0.63 3.43 -0.07 3.66 C-3.26 4.66 -6.44 5.67 -9.62 6.69 C-10.77 7.05 -11.91 7.41 -13.08 7.78 C-20.26 10.08 -27.33 12.5 -34.33 15.29 C-38.54 16.41 -41.08 15.51 -44.81 13.44 C-45.53 12.96 -46.26 12.49 -47 12 C-40.72 4.44 -24.31 3.26 -15 1 C-14.3 0.81 -13.6 0.63 -12.88 0.43 C-8.18 -0.81 -4.76 -1.24 0 0 Z " fill="#E9ECF1" transform="translate(689,509)"/>
<path d="M0 0 C4.63 2.26 4.63 2.26 6 5 C6.51 9.44 6.27 11.53 4 15.44 C0.47 18.45 0.47 18.45 -3.06 18.69 C-7 18 -7 18 -9.5 16.06 C-11.51 11.95 -11.96 8.49 -11 4 C-7.75 0.08 -4.99 -0.73 0 0 Z " fill="#F0F2F6" transform="translate(515,1019)"/>
<path d="M0 0 C2.94 1.44 2.94 1.44 5 4 C5.72 7.15 5.69 9.85 5 13 C2.44 16.8 1 17.8 -3.5 18.69 C-7.27 17.95 -8.88 16.93 -11.11 13.78 C-12.68 10.63 -12.62 8.42 -12 5 C-8.58 0.13 -5.86 -0.94 0 0 Z " fill="#EDEFF4" transform="translate(734,1019)"/>
<path d="M0 0 C3.33 0.55 5.3 1.49 8 3.5 C9.61 6.73 9.58 10.01 9 13.5 C6.94 16.5 6.94 16.5 4 18.5 C0.44 19.06 0.44 19.06 -3 18.5 C-5.36 16.63 -6.66 15.18 -8 12.5 C-8.5 8.13 -8.49 6.18 -5.88 2.56 C-3 0.5 -3 0.5 0 0 Z " fill="#F1F3F6" transform="translate(372,1018.5)"/>
<path d="M0 0 C2.44 1.56 2.44 1.56 4 4 C4.71 8.97 4.79 10.85 1.94 15 C-1.74 17.51 -3.63 17.72 -8 17 C-10.36 15.13 -11.66 13.68 -13 11 C-13.43 7.13 -13.32 5.48 -11.12 2.19 C-7.38 -1.66 -5.14 -1.15 0 0 Z " fill="#F2F4F7" transform="translate(859,1020)"/>
<path d="M0 0 C3.76 1.04 4.85 1.76 7 5.12 C7.66 6.07 8.32 7.02 9 8 C11.54 8.5 11.54 8.5 14 8 C14.99 8 15.98 8 17 8 C16.01 9.32 15.02 10.64 14 12 C16.31 12.66 18.62 13.32 21 14 C21 14.33 21 14.66 21 15 C-3.47 15.68 -3.47 15.68 -12 10 C-11.81 8.19 -11.81 8.19 -11 6 C-7.74 3.55 -4.94 2.77 -1 2 C-0.67 1.34 -0.34 0.68 0 0 Z " fill="#E6EEF4" transform="translate(454,472)"/>
<path d="M0 0 C1.98 0 3.96 0 6 0 C6 12.87 6 25.74 6 39 C4.02 39 2.04 39 0 39 C0 26.13 0 13.26 0 0 Z " fill="#2D4A71" transform="translate(235,1003)"/>
<path d="M0 0 C8.25 0 16.5 0 25 0 C25 1.32 25 2.64 25 4 C15.6 4.5 15.6 4.5 6 5 C5.88 6.79 5.75 8.59 5.62 10.44 C5.41 13.5 5.41 13.5 5 16 C4.34 16.33 3.68 16.66 3 17 C3.33 18.32 3.66 19.64 4 21 C4.33 21 4.66 21 5 21 C5 25.95 5 30.9 5 36 C3.35 36 1.7 36 0 36 C0 24.12 0 12.24 0 0 Z " fill="#072750" transform="translate(946,1005)"/>
<path d="M0 0 C1.98 0 3.96 0 6 0 C6.33 0.66 6.66 1.32 7 2 C7.99 1.34 8.98 0.68 10 0 C13.19 -0.12 13.19 -0.12 16 0 C16 1.98 16 3.96 16 6 C15.43 6.12 14.87 6.24 14.29 6.37 C13.55 6.53 12.82 6.7 12.06 6.88 C11.33 7.04 10.6 7.2 9.85 7.37 C7.79 7.83 7.79 7.83 7 10 C6.85 11.37 6.75 12.75 6.68 14.13 C6.64 14.94 6.6 15.74 6.56 16.57 C6.5 17.84 6.5 17.84 6.44 19.12 C6.37 20.4 6.37 20.4 6.31 21.7 C6.2 23.8 6.1 25.9 6 28 C4.02 28 2.04 28 0 28 C0 18.76 0 9.52 0 0 Z " fill="#1E375B" transform="translate(908,1014)"/>
<path d="M0 0 C0.33 0 0.66 0 1 0 C1.67 7.77 1.67 7.77 -1.31 11.5 C-4 14 -4 14 -7 14 C-6.35 14.92 -5.7 15.83 -5.03 16.77 C-4.19 17.97 -3.34 19.17 -2.5 20.38 C-2.07 20.98 -1.64 21.58 -1.2 22.2 C2 26.77 2 26.77 2 29 C-2.19 29.96 -2.19 29.96 -5 29 C-9.02 24.8 -13.02 19.87 -14 14 C-15.65 14 -17.3 14 -19 14 C-19 13.01 -19 12.02 -19 11 C-21.71 12.61 -24.37 14.25 -27 16 C-27 13.69 -27 11.38 -27 9 C-25.79 9.02 -24.59 9.05 -23.34 9.07 C-21.73 9.09 -20.11 9.11 -18.5 9.12 C-17.31 9.15 -17.31 9.15 -16.1 9.18 C-10.72 9.22 -6.17 8.51 -1 7 C-0.67 4.69 -0.34 2.38 0 0 Z " fill="#0F3360" transform="translate(492,1013)"/>
<path d="M0 0 C1.65 0 3.3 0 5 0 C5.66 0.66 6.32 1.32 7 2 C7.99 1.34 8.98 0.68 10 0 C13.19 -0.12 13.19 -0.12 16 0 C16 1.98 16 3.96 16 6 C14.89 6.12 13.77 6.25 12.62 6.38 C8.97 6.65 8.97 6.65 7 9 C6.63 11.03 6.63 11.03 6.59 13.35 C6.53 14.63 6.53 14.63 6.47 15.93 C6.44 16.82 6.41 17.71 6.38 18.62 C6.32 19.97 6.32 19.97 6.26 21.34 C6.16 23.56 6.08 25.78 6 28 C4.02 28 2.04 28 0 28 C0 18.76 0 9.52 0 0 Z " fill="#113158" transform="translate(426,1014)"/>
<path d="M0 0 C0.33 0.66 0.66 1.32 1 2 C1.66 2.33 2.32 2.66 3 3 C3 3.99 3 4.98 3 6 C5.64 7.32 8.28 8.64 11 10 C11 10.99 11 11.98 11 13 C3.19 18.13 -7.11 17.57 -16 16 C-14.68 15.34 -13.36 14.68 -12 14 C-12.99 13.34 -13.98 12.68 -15 12 C-13.87 11.65 -13.87 11.65 -12.73 11.29 C-9.54 9.78 -8.38 8.3 -6.38 5.44 C-3.31 1.1 -3.31 1.1 0 0 Z " fill="#F0F4F8" transform="translate(803,449)"/>
<path d="M0 0 C0 1.98 0 3.96 0 6 C-0.57 6.12 -1.13 6.24 -1.71 6.37 C-2.45 6.53 -3.18 6.7 -3.94 6.88 C-4.67 7.04 -5.4 7.2 -6.15 7.37 C-8.21 7.83 -8.21 7.83 -9 10 C-9.15 11.37 -9.25 12.75 -9.32 14.13 C-9.36 14.94 -9.4 15.74 -9.44 16.57 C-9.5 17.84 -9.5 17.84 -9.56 19.12 C-9.63 20.4 -9.63 20.4 -9.69 21.7 C-9.8 23.8 -9.9 25.9 -10 28 C-11.98 28 -13.96 28 -16 28 C-16 19.09 -16 10.18 -16 1 C-13.33 1 -10.67 1 -8 1 C-5.29 -0.35 -2.99 -0.07 0 0 Z " fill="#1E3E64" transform="translate(1023,1014)"/>
<path d="M0 0 C2.44 -0.08 4.87 -0.14 7.31 -0.19 C8.35 -0.23 8.35 -0.23 9.4 -0.26 C14.49 -0.34 14.49 -0.34 16.95 1.29 C18.75 4.22 18.42 6.68 18 10 C15.56 12.64 14.16 12.99 10.55 13.29 C9.29 13.26 8.04 13.22 6.75 13.19 C5.49 13.16 4.22 13.13 2.92 13.11 C1.96 13.07 0.99 13.04 0 13 C0 8.71 0 4.42 0 0 Z " fill="#F2F4F6" transform="translate(469,1010)"/>
<path d="M0 0 C2.44 -0.08 4.87 -0.14 7.31 -0.19 C8.35 -0.23 8.35 -0.23 9.4 -0.26 C14.49 -0.34 14.49 -0.34 16.95 1.29 C18.75 4.22 18.42 6.68 18 10 C15.56 12.64 14.16 12.99 10.55 13.29 C9.29 13.26 8.04 13.22 6.75 13.19 C5.49 13.16 4.22 13.13 2.92 13.11 C1.96 13.07 0.99 13.04 0 13 C0 8.71 0 4.42 0 0 Z " fill="#F7F7F9" transform="translate(204,1010)"/>
<path d="M0 0 C1.45 0.03 1.45 0.03 2.94 0.06 C0.85 6.47 -1.4 12.81 -3.75 19.12 C-4.07 19.99 -4.39 20.86 -4.72 21.75 C-5.5 23.85 -6.28 25.96 -7.06 28.06 C-9.04 28.06 -11.02 28.06 -13.06 28.06 C-15.87 20.28 -17.73 14.26 -16.06 6.06 C-15.73 6.06 -15.4 6.06 -15.06 6.06 C-14.96 6.8 -14.86 7.55 -14.75 8.31 C-14.01 11.26 -12.98 12.75 -11.06 15.06 C-10.73 15.72 -10.4 16.38 -10.06 17.06 C-7.6 11.79 -5.58 6.68 -4.06 1.06 C-3.06 0.06 -3.06 0.06 0 0 Z " fill="#18365E" transform="translate(787.0625,1013.9375)"/>
<path d="M0 0 C2.07 0.98 2.07 0.98 4.07 3.98 C3.93 6.01 3.93 6.01 3.07 7.98 C1.45 9.36 1.45 9.36 -0.64 10.56 C-1.39 11 -2.14 11.44 -2.91 11.89 C-3.7 12.33 -4.49 12.78 -5.3 13.23 C-6.08 13.69 -6.86 14.15 -7.67 14.62 C-13.51 17.98 -13.51 17.98 -16.93 17.98 C-19.03 15.1 -19.93 13.6 -19.93 9.98 C-17.46 7.86 -14.55 6.36 -11.74 4.73 C-10.97 4.26 -10.2 3.79 -9.41 3.3 C-3.75 -0.02 -3.75 -0.02 0 0 Z " fill="#1380E1" transform="translate(609.92578125,339.015625)"/>
<path d="M0 0 C1.75 1.75 1.75 1.75 3 4 C2.97 5.82 2.97 5.82 2 8 C-0.05 9.86 -2.03 11.49 -4.25 13.12 C-4.82 13.57 -5.4 14.01 -5.99 14.46 C-9.19 16.88 -12.2 18.73 -16 20 C-17.32 18.35 -18.64 16.7 -20 15 C-18.66 11.9 -17.34 10.2 -14.63 8.2 C-13.97 7.72 -13.32 7.24 -12.64 6.74 C-11.95 6.25 -11.27 5.76 -10.56 5.25 C-9.54 4.49 -9.54 4.49 -8.5 3.71 C-3.39 0 -3.39 0 0 0 Z " fill="#1280E2" transform="translate(577,360)"/>
<path d="M0 0 C2.47 1.15 4.05 2.05 6 4 C5.68 7.44 4.29 9.02 1.81 11.31 C-1.72 14.69 -4.86 18.25 -8 22 C-10.92 20.93 -12.78 20.22 -15 18 C-14.68 14.57 -13.26 12.9 -10.84 10.55 C-10.21 9.93 -9.58 9.31 -8.94 8.67 C-8.28 8.04 -7.62 7.4 -6.94 6.75 C-6.27 6.1 -5.61 5.45 -4.93 4.78 C-3.29 3.18 -1.65 1.59 0 0 Z " fill="#1481E1" transform="translate(543,385)"/>
<path d="M0 0 C2.92 1.07 4.78 1.78 7 4 C6.64 7.14 5.37 9.18 3.5 11.67 C3 12.34 2.51 13 2 13.68 C1.49 14.37 0.97 15.05 0.44 15.75 C-0.08 16.45 -0.6 17.14 -1.14 17.86 C-2.42 19.58 -3.71 21.29 -5 23 C-9.75 21.12 -9.75 21.12 -12 20 C-11.6 14.67 -8.57 11.28 -5.44 7.19 C-4.92 6.49 -4.4 5.8 -3.86 5.09 C-2.58 3.39 -1.29 1.69 0 0 Z " fill="#1580DF" transform="translate(516,415)"/>
<path d="M0 0 C4.35 2.17 7.56 4.78 10 9 C10.32 12.03 10.24 14.96 10 18 C9.38 17.67 8.76 17.34 8.12 17 C6.09 15.86 6.09 15.86 4 16 C3.75 14.72 3.5 13.44 3.25 12.12 C2.47 8.89 2.47 8.89 0.25 6.5 C-3.6 5.64 -6.64 5.41 -10.31 7 C-12.93 10.1 -12.74 13 -13 17 C-13.33 17 -13.66 17 -14 17 C-14 15.02 -14 13.04 -14 11 C-14.99 10.67 -15.98 10.34 -17 10 C-17.33 12.97 -17.66 15.94 -18 19 C-18.33 19 -18.66 19 -19 19 C-19.62 9.11 -19.62 9.11 -17.31 5 C-11.71 0.15 -7.39 -1.07 0 0 Z " fill="#112F56" transform="translate(517,1014)"/>
<path d="M0 0 C0.33 0 0.66 0 1 0 C1 7.26 1 14.52 1 22 C-2 22 -5 22 -8 22 C-8.99 22.33 -9.98 22.66 -11 23 C-13.33 23.04 -15.67 23.04 -18 23 C-18 22.34 -18 21.68 -18 21 C-16.35 21 -14.7 21 -13 21 C-14.24 19.92 -14.24 19.92 -15.5 18.81 C-18 16 -18 16 -18.5 13.31 C-18 11 -18 11 -15 9 C-12.52 9.02 -12.52 9.02 -9.81 9.38 C-8.91 9.49 -8.01 9.6 -7.08 9.71 C-6.39 9.81 -5.71 9.9 -5 10 C-4.88 16.75 -4.88 16.75 -6 19 C-5.01 19 -4.02 19 -3 19 C-3 18.34 -3 17.68 -3 17 C-2.34 17 -1.68 17 -1 17 C-1.01 16.36 -1.02 15.72 -1.04 15.06 C-1.09 9.91 -0.88 5.07 0 0 Z " fill="#183861" transform="translate(998,1020)"/>
<path d="M0 0 C3.17 -0.47 3.17 -0.47 7 0 C9.3 2.18 10.75 4.77 12.31 7.5 C13.83 10.04 15.39 12.52 17 15 C17.66 15 18.32 15 19 15 C17.12 20.88 17.12 20.88 16 22 C15.76 24.53 15.58 27.03 15.44 29.56 C15.39 30.27 15.35 30.98 15.31 31.72 C15.2 33.48 15.1 35.24 15 37 C16.65 37 18.3 37 20 37 C20 32.05 20 27.1 20 22 C20.33 22 20.66 22 21 22 C21 27.28 21 32.56 21 38 C18.69 38 16.38 38 14 38 C14.04 37.03 14.09 36.06 14.13 35.06 C14.27 22.05 9.03 13.71 1.18 3.67 C0 2 0 2 0 0 Z " fill="#20426C" transform="translate(808,1004)"/>
<path d="M0 0 C4.05 0.1 6.49 0.66 9.69 3.31 C13.73 7.91 14.82 10.21 14.69 16.31 C12.71 16.31 10.73 16.31 8.69 16.31 C8.69 14.99 8.69 13.67 8.69 12.31 C3.41 12.31 -1.87 12.31 -7.31 12.31 C-5.31 7.31 -5.31 7.31 -2.31 5.31 C-0.32 4.92 1.68 4.58 3.69 4.31 C3.69 3.65 3.69 2.99 3.69 2.31 C0.39 2.31 -2.91 2.31 -6.31 2.31 C-3.92 -0.08 -3.27 0.02 0 0 Z " fill="#15345C" transform="translate(1039.3125,1013.6875)"/>
<path d="M0 0 C-0.33 0.99 -0.66 1.98 -1 3 C-1.66 3 -2.32 3 -3 3 C-3 3.66 -3 4.32 -3 5 C-2.41 4.94 -1.82 4.88 -1.21 4.82 C3.37 4.56 5.32 4.47 9.06 7.38 C11 10 11 10 11 12 C5.39 12 -0.22 12 -6 12 C-6 11.01 -6 10.02 -6 9 C-6.66 9 -7.32 9 -8 9 C-8.33 11.31 -8.66 13.62 -9 16 C-9.33 16 -9.66 16 -10 16 C-11.68 9.16 -11.68 9.16 -9.8 5.95 C-4.71 0 -4.71 0 0 0 Z " fill="#27476C" transform="translate(597,1014)"/>
<path d="M0 0 C2.18 2.39 2.97 3.97 3.06 7.22 C2.59 13.32 2.59 13.32 0.45 15.77 C-0.03 16.18 -0.51 16.58 -1 17 C-1.1 16.36 -1.21 15.72 -1.31 15.06 C-1.54 14.38 -1.77 13.7 -2 13 C-2.99 12.67 -3.98 12.34 -5 12 C-4.96 10.89 -4.92 9.77 -4.88 8.62 C-4.59 4.96 -4.59 4.96 -7 3 C-9.57 2.69 -12.05 2.49 -14.62 2.38 C-15.33 2.34 -16.04 2.3 -16.77 2.26 C-18.51 2.16 -20.25 2.08 -22 2 C-22 1.67 -22 1.34 -22 1 C-20.02 0.67 -18.04 0.34 -16 0 C-16.33 -0.66 -16.66 -1.32 -17 -2 C-5.02 -3.77 -5.02 -3.77 0 0 Z " fill="#1B3B65" transform="translate(226,1008)"/>
<path d="M0 0 C1.65 0 3.3 0 5 0 C5.06 1.07 5.12 2.14 5.18 3.25 C5.27 4.64 5.35 6.04 5.44 7.44 C5.48 8.14 5.52 8.85 5.56 9.58 C5.48 13.09 5.48 13.09 7 16 C9.33 16.37 11.66 16.7 14 17 C14 18.65 14 20.3 14 22 C12.23 22.08 10.46 22.14 8.69 22.19 C7.7 22.22 6.72 22.26 5.7 22.29 C3 22 3 22 1.35 20.76 C-0.36 18.53 -0.35 17.34 -0.29 14.55 C-0.28 13.7 -0.27 12.86 -0.26 11.98 C-0.24 11.1 -0.21 10.22 -0.19 9.31 C-0.17 8.42 -0.16 7.53 -0.15 6.61 C-0.11 4.4 -0.06 2.2 0 0 Z " fill="#143057" transform="translate(568,1020)"/>
<path d="M0 0 C3.19 1.5 3.19 1.5 5 3 C4.67 3.99 4.34 4.98 4 6 C2.06 6.75 2.06 6.75 0 7 C-0.66 6.67 -1.32 6.34 -2 6 C-6.97 5.51 -6.97 5.51 -11.31 7.62 C-13.23 10.32 -14.13 12.82 -15 16 C-15.66 14.68 -16.32 13.36 -17 12 C-17.33 13.65 -17.66 15.3 -18 17 C-18.33 17 -18.66 17 -19 17 C-18.67 14.03 -18.34 11.06 -18 8 C-17.34 8 -16.68 8 -16 8 C-15.92 7.24 -15.84 6.47 -15.75 5.69 C-13.7 -1.65 -6.26 -0.72 0 0 Z " fill="#12325A" transform="translate(736,1014)"/>
<path d="M0 0 C1.21 0.01 1.21 0.01 2.45 0.03 C3.37 0.04 3.37 0.04 4.31 0.06 C3.31 3.06 3.31 3.06 1.46 4.01 C0.37 4.38 0.37 4.38 -0.75 4.75 C-1.48 5 -2.22 5.25 -2.97 5.51 C-3.82 5.78 -3.82 5.78 -4.69 6.06 C-4.85 8.48 -4.85 8.48 -4.69 11.06 C-4.03 11.72 -3.37 12.38 -2.69 13.06 C-2.69 14.05 -2.69 15.04 -2.69 16.06 C-4.94 16.81 -4.94 16.81 -7.69 17.06 C-10 15.69 -10 15.69 -11.69 13.06 C-12.24 9.96 -12.28 7.16 -11.69 4.06 C-8.43 0.47 -4.68 -0.07 0 0 Z " fill="#14345C" transform="translate(259.6875,1024.9375)"/>
<path d="M0 0 C1.98 0 3.96 0 6 0 C6.33 6.93 6.66 13.86 7 21 C5.02 21.33 3.04 21.66 1 22 C-0.2 19.6 -0.11 18.11 -0.1 15.43 C-0.09 14.53 -0.09 13.64 -0.09 12.71 C-0.08 11.78 -0.07 10.84 -0.06 9.88 C-0.06 8.93 -0.05 7.99 -0.05 7.01 C-0.04 4.67 -0.02 2.34 0 0 Z " fill="#1F3B5C" transform="translate(393,1015)"/>
<path d="M0 0 C-2.23 2.23 -3.22 2.48 -6.22 3.18 C-7.06 3.39 -7.91 3.59 -8.78 3.8 C-9.68 4.01 -10.58 4.22 -11.5 4.44 C-17.02 5.76 -22.48 7.08 -27.88 8.88 C-31.54 10.04 -34.23 10.09 -38 9 C-38 8.01 -38 7.02 -38 6 C-31.58 3.95 -25.08 2.92 -18.44 1.88 C-16.77 1.6 -16.77 1.6 -15.07 1.32 C-14 1.15 -12.92 0.98 -11.81 0.8 C-10.84 0.65 -9.87 0.49 -8.86 0.34 C-5.88 -0.01 -3 -0.06 0 0 Z " fill="#BFCAD6" transform="translate(741,497)"/>
<path d="M0 0 C3.3 0.33 4.62 0.62 7 3 C6.22 3.45 5.43 3.91 4.62 4.38 C0.9 8.1 0.65 11.91 0 17 C-0.99 17.33 -1.98 17.66 -3 18 C-3.99 17.34 -4.98 16.68 -6 16 C-6.57 11.11 -6.53 8.96 -4.12 4.62 C-2 2 -2 2 0 0 Z " fill="#0D284D" transform="translate(846,1016)"/>
<path d="M0 0 C3.06 -0.62 3.06 -0.62 7 0 C9.98 2.97 12.29 6.16 14 10 C13.66 12.62 13.66 12.62 13 15 C13.38 18.22 13.38 18.22 14 21 C10.77 17.04 7.73 12.96 4.75 8.81 C4.29 8.18 3.83 7.56 3.36 6.91 C0 2.23 0 2.23 0 0 Z " fill="#1D3860" transform="translate(326,1004)"/>
<path d="M0 0 C0.68 0.8 1.36 1.61 2.06 2.44 C4.82 5.31 4.82 5.31 8.62 5.5 C12 6 12 6 13.94 8.56 C14.29 9.37 14.64 10.17 15 11 C10.73 12.42 7.08 12.9 2.84 11.06 C-0.57 9.08 -2.62 7.71 -4.5 4.19 C-4.66 3.47 -4.83 2.74 -5 2 C-3.68 2 -2.36 2 -1 2 C-0.67 1.34 -0.34 0.68 0 0 Z " fill="#14365E" transform="translate(846,1031)"/>
<path d="M0 0 C7.26 0 14.52 0 22 0 C22 0.33 22 0.66 22 1 C19.69 1.33 17.38 1.66 15 2 C15 2.66 15 3.32 15 4 C15.99 4.33 16.98 4.66 18 5 C12.88 7.61 9.77 8.63 4 7 C1.56 5.12 1.56 5.12 0 3 C0 2.01 0 1.02 0 0 Z " fill="#DCE1E8" transform="translate(1032,1030)"/>
<path d="M0 0 C1.65 0 3.3 0 5 0 C5.86 2.12 6.72 4.25 7.56 6.38 C8.28 8.15 8.28 8.15 9 9.96 C10 13 10 13 9 15 C8.01 15 7.02 15 6 15 C5.67 13.02 5.34 11.04 5 9 C4.01 10.48 4.01 10.48 3 12 C3 11.34 3 10.68 3 10 C2.34 10 1.68 10 1 10 C0.67 10.99 0.34 11.98 0 13 C-1.32 12.67 -2.64 12.34 -4 12 C-3.34 7.61 -1.81 4.02 0 0 Z " fill="#254771" transform="translate(766,1014)"/>
<path d="M0 0 C1.65 0 3.3 0 5 0 C3.68 0.33 2.36 0.66 1 1 C1 3.64 1 6.28 1 9 C2.98 9.49 2.98 9.49 5 10 C5 15.61 5 21.22 5 27 C3.35 27 1.7 27 0 27 C0 18.09 0 9.18 0 0 Z " fill="#031C45" transform="translate(1007,1015)"/>
<path d="M0 0 C0.9 0.01 1.79 0.03 2.71 0.04 C4.06 0.05 4.06 0.05 5.44 0.06 C7.65 0.23 7.65 0.23 8.65 1.23 C9.03 3.61 9.03 3.61 8.65 6.23 C6.59 8.11 6.59 8.11 3.65 9.23 C-2.78 8.8 -2.78 8.8 -4.35 7.23 C-4.54 4.79 -4.54 4.79 -4.35 2.23 C-2.35 0.23 -2.35 0.23 0 0 Z " fill="#EAEDF0" transform="translate(258.34765625,1028.76953125)"/>
<path d="M0 0 C1.32 0 2.64 0 4 0 C4.14 7.43 4.14 7.43 3 11 C3.99 11.33 4.98 11.66 6 12 C3 12 0 12 -3 12 C-3.99 12.49 -3.99 12.49 -5 13 C-7.67 13.13 -10.32 13.04 -13 13 C-13 12.34 -13 11.68 -13 11 C-12.01 11 -11.02 11 -10 11 C-10.33 10.01 -10.66 9.02 -11 8 C-7.97 7.27 -7.97 7.27 -4.95 6.54 C-2.94 6.05 -2.94 6.05 -1 5 C-0.34 2.47 -0.34 2.47 0 0 Z " fill="#1E355B" transform="translate(267,1030)"/>
<path d="M0 0 C0.9 0.11 1.8 0.22 2.73 0.34 C3.76 0.48 3.76 0.48 4.81 0.62 C5.01 5.4 5.01 5.4 3.25 7.44 C-0.05 9.05 -2.56 8.96 -6.19 8.62 C-8.19 6.62 -8.19 6.62 -8.5 4.12 C-8.4 3.3 -8.29 2.47 -8.19 1.62 C-4.74 -0.68 -3.95 -0.51 0 0 Z " fill="#E5E9ED" transform="translate(988.1875,1029.375)"/>
<path d="M0 0 C1.65 0 3.3 0 5 0 C5 12.54 5 25.08 5 38 C4.01 37.67 3.02 37.34 2 37 C0.33 24.03 0.33 24.03 1 18 C1.66 17.34 2.32 16.68 3 16 C3.31 13.43 3.51 10.95 3.62 8.38 C3.66 7.67 3.7 6.96 3.74 6.23 C3.84 4.49 3.92 2.75 4 1 C2.68 0.67 1.36 0.34 0 0 Z " fill="#032753" transform="translate(235,1003)"/>
<path d="M0 0 C1.65 0 3.3 0 5 0 C5 5.94 5 11.88 5 18 C4.34 18 3.68 18 3 18 C2.67 19.98 2.34 21.96 2 24 C0 22 0 22 -0.23 19.75 C-0.22 18.84 -0.21 17.93 -0.2 16.99 C-0.19 16.01 -0.18 15.02 -0.18 14 C-0.16 12.97 -0.14 11.94 -0.12 10.88 C-0.12 9.83 -0.11 8.79 -0.1 7.72 C-0.07 5.15 -0.04 2.57 0 0 Z " fill="#092550" transform="translate(875,1015)"/>
<path d="M0 0 C1.32 0 2.64 0 4 0 C4 8.58 4 17.16 4 26 C3.01 25.67 2.02 25.34 1 25 C1.66 25 2.32 25 3 25 C2.34 22.69 1.68 20.38 1 18 C0.34 18.33 -0.32 18.66 -1 19 C-1.03 16.96 -1.05 14.92 -1.06 12.88 C-1.07 11.74 -1.09 10.6 -1.1 9.43 C-1.01 6.19 -0.61 3.18 0 0 Z " fill="#0C2F59" transform="translate(413,1015)"/>
<path d="M0 0 C0.66 0 1.32 0 2 0 C3.23 2.45 3.11 4.05 3.1 6.79 C3.09 7.73 3.09 8.67 3.09 9.64 C3.08 10.63 3.07 11.61 3.06 12.62 C3.06 13.62 3.05 14.61 3.05 15.63 C3.04 18.09 3.02 20.54 3 23 C2.01 23 1.02 23 0 23 C0.33 19.37 0.66 15.74 1 12 C0.34 12 -0.32 12 -1 12 C-1.33 13.32 -1.66 14.64 -2 16 C-2 14.68 -2 13.36 -2 12 C-3.32 11.34 -4.64 10.68 -6 10 C-5.67 9.34 -5.34 8.68 -5 8 C-4.01 8 -3.02 8 -2 8 C-2 6.02 -2 4.04 -2 2 C-1.34 2 -0.68 2 0 2 C0 1.34 0 0.68 0 0 Z " fill="#0C2B54" transform="translate(270,1018)"/>
<path d="M0 0 C1.32 0 2.64 0 4 0 C3.67 0.66 3.34 1.32 3 2 C2.34 1.67 1.68 1.34 1 1 C1 2.32 1 3.64 1 5 C1.99 5.33 2.98 5.66 4 6 C4 12.6 4 19.2 4 26 C2.68 26 1.36 26 0 26 C0 17.42 0 8.84 0 0 Z " fill="#001D4F" transform="translate(687,1015)"/>
<path d="M0 0 C2.88 2.38 2.88 2.38 5 5 C5 5.66 5 6.32 5 7 C-0.28 7 -5.56 7 -11 7 C-8.52 0.79 -6.61 -0.92 0 0 Z " fill="#D6DDE4" transform="translate(1043,1019)"/>
<path d="M0 0 C1.32 0 2.64 0 4 0 C3.67 0.66 3.34 1.32 3 2 C2.34 1.67 1.68 1.34 1 1 C1 3.31 1 5.62 1 8 C2.32 7.67 3.64 7.34 5 7 C4.67 13.27 4.34 19.54 4 26 C2.68 26 1.36 26 0 26 C0 17.42 0 8.84 0 0 Z " fill="#052149" transform="translate(282,1015)"/>
<path d="M0 0 C5.94 0 11.88 0 18 0 C18 1.65 18 3.3 18 5 C12.39 5 6.78 5 1 5 C0.67 3.35 0.34 1.7 0 0 Z " fill="#0A264C" transform="translate(951,1021)"/>
<path d="M0 0 C3.79 2.04 6.95 4.14 9 8 C8.69 10.25 8.69 10.25 8 12 C7.34 11.34 6.68 10.68 6 10 C6 9.01 6 8.02 6 7 C4.02 7.99 4.02 7.99 2 9 C1.6 8.52 1.2 8.04 0.79 7.54 C-1.43 5.63 -2.79 5.52 -5.69 5.31 C-6.9 5.21 -6.9 5.21 -8.14 5.11 C-8.75 5.08 -9.37 5.04 -10 5 C-10 3 -10 3 -8.94 1.38 C-5.89 -0.79 -3.65 -0.43 0 0 Z " fill="#183559" transform="translate(604,1014)"/>
<path d="M0 0 C1.56 1.69 1.56 1.69 1.56 4.69 C0.33 4.78 0.33 4.78 -0.92 4.87 C-2.54 5 -2.54 5 -4.19 5.12 C-5.25 5.21 -6.32 5.29 -7.42 5.37 C-9.87 5.63 -12.08 6.01 -14.44 6.69 C-13.95 1.12 -13.95 1.12 -11.81 -0.69 C-7.57 -1.8 -3.93 -2.12 0 0 Z " fill="#E1E5EB" transform="translate(265.4375,1020.3125)"/>
<path d="M0 0 C0.93 3.01 1.04 3.87 0 7 C-3 8.5 -5.79 8.09 -9.12 8.06 C-10.41 8.05 -11.69 8.04 -13.01 8.04 C-14.49 8.02 -14.49 8.02 -16 8 C-15.67 6.68 -15.34 5.36 -15 4 C-14.13 3.82 -14.13 3.82 -13.24 3.63 C-8.72 2.66 -4.36 1.57 0 0 Z " fill="#081F3F" transform="translate(224,1020)"/>
<path d="M0 0 C2.44 1.31 2.44 1.31 4 3 C4 3.99 4 4.98 4 6 C-0.95 6.33 -5.9 6.66 -11 7 C-11.33 5.35 -11.66 3.7 -12 2 C-7.87 -0 -4.57 -0.42 0 0 Z " fill="#E6E9EE" transform="translate(989,1019)"/>
<path d="M0 0 C0.99 0.33 1.98 0.66 3 1 C2.34 1 1.68 1 1 1 C1 1.66 1 2.32 1 3 C0.34 3 -0.32 3 -1 3 C-1 4.32 -1 5.64 -1 7 C-0.01 7 0.98 7 2 7 C2.33 7 2.66 7 3 7 C3.29 8.09 3.58 9.19 3.88 10.31 C4.82 14.04 4.82 14.04 7 17 C5.31 18.19 5.31 18.19 3 19 C0.31 17.81 0.31 17.81 -2 16 C-3.34 11.97 -3.46 8.22 -3 4 C-1.5 1.44 -1.5 1.44 0 0 Z " fill="#2B476B" transform="translate(719,1019)"/>
<path d="M0 0 C1.98 0 3.96 0 6 0 C6.86 2.29 7.72 4.58 8.56 6.88 C8.81 7.53 9.06 8.18 9.31 8.85 C9.93 10.54 10.47 12.27 11 14 C10.67 14.66 10.34 15.32 10 16 C9.34 16 8.68 16 8 16 C7.67 14.35 7.34 12.7 7 11 C6.34 11 5.68 11 5 11 C4.67 11.66 4.34 12.32 4 13 C3.32 11.59 2.66 10.17 2 8.75 C1.44 7.57 1.44 7.57 0.88 6.36 C0 4 0 4 0 0 Z " fill="#20385C" transform="translate(747,1014)"/>
<path d="M0 0 C1.03 0.21 2.06 0.41 3.12 0.62 C1.57 5.3 -0.96 8.71 -3.88 12.62 C-5.86 11.97 -7.84 11.3 -9.88 10.62 C-5.1 0.82 -5.1 0.82 0 0 Z " fill="#143763" transform="translate(839.875,1003.375)"/>
<path d="M0 0 C0.33 0 0.66 0 1 0 C1.62 9.85 1.62 9.85 -0.69 14.12 C-3.21 16.17 -4.8 16.73 -8 17 C-7.49 12.57 -6.44 9.71 -4 6 C-3.32 4.67 -2.65 3.34 -2 2 C-1.67 2.66 -1.34 3.32 -1 4 C-0.67 2.68 -0.34 1.36 0 0 Z " fill="#18345A" transform="translate(385,1024)"/>
<path d="M0 0 C2.44 1.88 2.44 1.88 4 4 C4 4.66 4 5.32 4 6 C-0.95 6 -5.9 6 -11 6 C-9.39 -0.46 -6.12 -0.64 0 0 Z " fill="#F0F2F5" transform="translate(603,1019)"/>
<path d="M0 0 C0.33 0 0.66 0 1 0 C1.51 5.31 0.23 7.82 -3 12 C-3.66 12.66 -4.32 13.32 -5 14 C-7.12 13.62 -7.12 13.62 -9 13 C-9.75 11.25 -9.75 11.25 -10 9 C-8.25 7 -8.25 7 -6 5 C-4.98 3.68 -3.97 2.36 -3 1 C-2.34 1.66 -1.68 2.32 -1 3 C-0.67 2.01 -0.34 1.02 0 0 Z " fill="#092951" transform="translate(868,1027)"/>
<path d="M0 0 C0.99 0.33 1.98 0.66 3 1 C3 2.32 3 3.64 3 5 C8.61 5 14.22 5 20 5 C20 5.33 20 5.66 20 6 C14.39 6 8.78 6 3 6 C3 10.95 3 15.9 3 21 C1.02 21 -0.96 21 -3 21 C-2.67 16.05 -2.34 11.1 -2 6 C-1.67 6 -1.34 6 -1 6 C-1 10.62 -1 15.24 -1 20 C-0.01 20 0.98 20 2 20 C1.89 17.87 1.76 15.75 1.62 13.62 C1.56 12.44 1.49 11.26 1.41 10.04 C1.3 6.89 1.3 6.89 -1 5 C-0.62 2.38 -0.62 2.38 0 0 Z " fill="#345477" transform="translate(949,1021)"/>
<path d="M0 0 C2.62 0.38 2.62 0.38 5 1 C4.1 5.45 2.04 8.66 -1 12 C-3.81 13.44 -3.81 13.44 -6 14 C-5.67 11.69 -5.34 9.38 -5 7 C-4.34 7 -3.68 7 -3 7 C-2.88 6.22 -2.75 5.43 -2.62 4.62 C-2 2 -2 2 0 0 Z " fill="#0B2B55" transform="translate(830,1014)"/>
<path d="M0 0 C0.66 0 1.32 0 2 0 C3.63 1.93 5.14 3.84 6.62 5.88 C7.05 6.43 7.47 6.99 7.9 7.56 C11 11.74 11 11.74 11 14 C7.75 14.31 7.75 14.31 4 14 C1.56 11.69 1.56 11.69 0 9 C0 8.01 0 7.02 0 6 C0.66 5.67 1.32 5.34 2 5 C2 4.34 2 3.68 2 3 C1.34 3 0.68 3 0 3 C0 2.01 0 1.02 0 0 Z " fill="#153561" transform="translate(671,1028)"/>
<path d="M0 0 C3.12 -0.19 3.12 -0.19 6 0 C4.67 4 3.33 8 2 12 C0.35 12 -1.3 12 -3 12 C-2.89 10.56 -2.76 9.12 -2.62 7.69 C-2.56 6.89 -2.49 6.09 -2.41 5.26 C-2 3 -2 3 0 0 Z " fill="#0B274D" transform="translate(784,1014)"/>
<path d="M0 0 C2.38 -0.12 2.38 -0.12 5 0 C5.66 0.66 6.32 1.32 7 2 C7.99 1.34 8.98 0.68 10 0 C13.19 -0.12 13.19 -0.12 16 0 C16 1.98 16 3.96 16 6 C10.74 7.05 10.74 7.05 8 7 C5.75 5.12 5.75 5.12 4 3 C1.86 2.21 1.86 2.21 0 2 C0 1.34 0 0.68 0 0 Z " fill="#15335B" transform="translate(426,1014)"/>
<path d="M0 0 C0.66 0 1.32 0 2 0 C2 1.32 2 2.64 2 4 C-17.8 4 -37.6 4 -58 4 C-58 3.67 -58 3.34 -58 3 C-39.19 3 -20.38 3 -1 3 C-0.67 2.01 -0.34 1.02 0 0 Z " fill="#016ADC" transform="translate(817,902)"/>
<path d="M0 0 C6.27 0.33 12.54 0.66 19 1 C18.67 1.99 18.34 2.98 18 4 C13.05 4 8.1 4 3 4 C3 6.31 3 8.62 3 11 C2.01 11 1.02 11 0 11 C0 7.37 0 3.74 0 0 Z " fill="#183D67" transform="translate(465,1006)"/>
<path d="M0 0 C0.33 0 0.66 0 1 0 C1 5.61 1 11.22 1 17 C-0.65 17 -2.3 17 -4 17 C-4 11.72 -4 6.44 -4 1 C-3.67 1 -3.34 1 -3 1 C-2.67 2.98 -2.34 4.96 -2 7 C-1.34 4.69 -0.68 2.38 0 0 Z " fill="#06244F" transform="translate(345,1025)"/>
<path d="M0 0 C0.33 0 0.66 0 1 0 C1.15 5.73 0.65 10.89 -0.5 16.5 C-0.64 17.23 -0.79 17.95 -0.93 18.7 C-1.28 20.47 -1.64 22.24 -2 24 C-2.33 23.01 -2.66 22.02 -3 21 C-3.66 21 -4.32 21 -5 21 C-4.67 20.34 -4.34 19.68 -4 19 C-3.34 19.33 -2.68 19.66 -2 20 C-2 19.01 -2 18.02 -2 17 C-3.32 17.33 -4.64 17.66 -6 18 C-4.24 11.89 -2.3 5.93 0 0 Z " fill="#3795EA" transform="translate(899,442)"/>
<path d="M0 0 C3.3 0 6.6 0 10 0 C10.33 0.66 10.66 1.32 11 2 C10.34 2 9.68 2 9 2 C9.33 3.32 9.66 4.64 10 6 C6.98 7.51 4.33 7.18 1 7 C0.01 6.34 -0.98 5.68 -2 5 C-1.34 3.35 -0.68 1.7 0 0 Z " fill="#1B3962" transform="translate(368,1036)"/>
<path d="M0 0 C0.23 0.58 0.45 1.15 0.69 1.75 C2.32 4.55 4.47 6 7 8 C7 8.66 7 9.32 7 10 C3.75 10.75 3.75 10.75 0 11 C-2.44 9.44 -2.44 9.44 -4 7 C-4.25 3.75 -4.25 3.75 -4 1 C-3.01 1 -2.02 1 -1 1 C-0.67 0.67 -0.34 0.34 0 0 Z " fill="#0A2952" transform="translate(978,1031)"/>
<path d="M0 0 C0.66 0.66 1.32 1.32 2 2 C2.66 1.34 3.32 0.68 4 0 C4.33 1.65 4.66 3.3 5 5 C5.99 5.33 6.98 5.66 8 6 C8.33 6.99 8.66 7.98 9 9 C7.35 9.66 5.7 10.32 4 11 C0.46 7.83 -1.59 5.83 -2 1 C-1.34 0.67 -0.68 0.34 0 0 Z " fill="#15365E" transform="translate(588,1030)"/>
<path d="M0 0 C0 0.99 0 1.98 0 3 C-3.49 6.13 -6.55 7.14 -11.19 7.06 C-13.07 7.03 -13.07 7.03 -15 7 C-15 6.34 -15 5.68 -15 5 C-12.69 4.34 -10.38 3.68 -8 3 C-8 2.34 -8 1.68 -8 1 C-4.93 -0.86 -3.4 -1.22 0 0 Z " fill="#1C3A60" transform="translate(1051,1036)"/>
<path d="M0 0 C0.49 1.98 0.49 1.98 1 4 C-10.22 4 -21.44 4 -33 4 C-33 3.67 -33 3.34 -33 3 C-25.53 1.86 -18.24 1.96 -10.69 2.13 C-9.27 2.14 -9.27 2.14 -7.82 2.16 C-6.97 2.18 -6.11 2.19 -5.23 2.21 C-2.71 2.15 -2.71 2.15 0 0 Z " fill="#0D77DE" transform="translate(1125,915)"/>
<path d="M0 0 C0.66 0.33 1.32 0.66 2 1 C0.6 2.54 -0.82 4.05 -2.25 5.56 C-3.43 6.83 -3.43 6.83 -4.64 8.13 C-7 10 -7 10 -9.05 9.9 C-11.06 8.97 -13.05 8.05 -15 7 C-12.55 5.8 -10.09 4.62 -7.62 3.44 C-6.93 3.1 -6.23 2.75 -5.51 2.4 C-3.7 1.54 -1.85 0.76 0 0 Z " fill="#203E69" transform="translate(768,646)"/>
<path d="M0 0 C0.66 0 1.32 0 2 0 C4.04 2.91 5 4.4 5 8 C2.03 8 -0.94 8 -4 8 C-4 7.67 -4 7.34 -4 7 C-8.29 6.67 -12.58 6.34 -17 6 C-17 5.67 -17 5.34 -17 5 C-11.39 5 -5.78 5 0 5 C-0.33 3.68 -0.66 2.36 -1 1 C-0.67 0.67 -0.34 0.34 0 0 Z " fill="#03204D" transform="translate(608,1021)"/>
<path d="M0 0 C1.65 0 3.3 0 5 0 C5 6.27 5 12.54 5 19 C4.67 19 4.34 19 4 19 C3.67 16.36 3.34 13.72 3 11 C2.34 11.99 1.68 12.98 1 14 C0.67 9.38 0.34 4.76 0 0 Z " fill="#0A2549" transform="translate(393,1015)"/>
<path d="M0 0 C0.33 0 0.66 0 1 0 C1.03 0.6 1.05 1.19 1.08 1.8 C1.19 4.49 1.31 7.18 1.44 9.88 C1.48 10.81 1.52 11.75 1.56 12.71 C1.6 13.61 1.64 14.51 1.68 15.43 C1.72 16.26 1.76 17.08 1.79 17.94 C1.88 20.06 1.88 20.06 3 22 C2.34 22 1.68 22 1 22 C0.34 23.32 -0.32 24.64 -1 26 C-1.66 25.67 -2.32 25.34 -3 25 C-3.12 21.62 -3.12 21.62 -3 18 C-2.34 17.34 -1.68 16.68 -1 16 C-0.69 13.27 -0.49 10.62 -0.38 7.88 C-0.34 7.12 -0.3 6.37 -0.26 5.59 C-0.16 3.73 -0.08 1.86 0 0 Z " fill="#2E4868" transform="translate(880,1015)"/>
<path d="M0 0 C-0.09 1.44 -0.2 2.88 -0.31 4.31 C-0.37 5.11 -0.43 5.91 -0.49 6.74 C-1.08 9.36 -1.96 10.31 -4 12 C-4.1 11.36 -4.21 10.72 -4.31 10.06 C-4.54 9.38 -4.77 8.7 -5 8 C-5.99 7.67 -6.98 7.34 -8 7 C-7.67 5.02 -7.34 3.04 -7 1 C-6.34 1.66 -5.68 2.32 -5 3 C-4.55 2.5 -4.09 2.01 -3.62 1.5 C-2 0 -2 0 0 0 Z " fill="#1F426C" transform="translate(229,1013)"/>
<path d="M0 0 C1.32 0.33 2.64 0.66 4 1 C4.37 6.48 4.37 6.48 2.69 8.88 C1 10 1 10 -2 10 C-2 10.66 -2 11.32 -2 12 C-1.34 12.33 -0.68 12.66 0 13 C-1.65 13 -3.3 13 -5 13 C-5 11.02 -5 9.04 -5 7 C-3.35 7 -1.7 7 0 7 C0 4.69 0 2.38 0 0 Z " fill="#344F72" transform="translate(567,1007)"/>
<path d="M0 0 C3 1 3 1 4.18 2.77 C5.09 5.26 5.2 7.11 5.12 9.75 C5.11 10.55 5.09 11.35 5.07 12.17 C5.04 13.08 5.04 13.08 5 14 C4.34 12.68 3.68 11.36 3 10 C1.02 10.99 1.02 10.99 -1 12 C-1.03 10.56 -1.05 9.13 -1.06 7.69 C-1.07 6.89 -1.09 6.09 -1.1 5.26 C-1 3 -1 3 0 0 Z " fill="#1E3E67" transform="translate(382,1018)"/>
<path d="M0 0 C0.6 0.47 1.2 0.95 1.81 1.44 C4 3.16 4 3.16 7 4 C6.81 4.7 6.63 5.4 6.44 6.12 C5.95 9.34 6.34 11.84 7 15 C4.09 11.47 1.28 7.97 -1 4 C-0.75 1.62 -0.75 1.62 0 0 Z " fill="#14335D" transform="translate(333,1010)"/>
<path d="M0 0 C2.5 0.12 2.5 0.12 3.5 1.12 C3.69 3.56 3.69 3.56 3.5 6.12 C2.84 6.79 2.18 7.44 1.5 8.12 C-2.04 7.59 -2.04 7.59 -3.5 6.12 C-3.62 3.62 -3.62 3.62 -3.5 1.12 C-2.5 0.12 -2.5 0.12 0 0 Z " fill="#13315B" transform="translate(1063.5,1034.875)"/>
<path d="M0 0 C2.5 0.12 2.5 0.12 3.5 1.12 C3.62 3.62 3.62 3.62 3.5 6.12 C2.5 7.12 2.5 7.12 0.06 7.31 C-2.5 7.12 -2.5 7.12 -4.5 5.12 C-3.75 0.19 -3.75 0.19 0 0 Z " fill="#11315F" transform="translate(623.5,1034.875)"/>
<path d="M0 0 C1.32 0 2.64 0 4 0 C4.14 7.43 4.14 7.43 3 11 C3.99 11.33 4.98 11.66 6 12 C4.02 12 2.04 12 0 12 C-0.19 11.07 -0.19 11.07 -0.38 10.12 C-0.87 7.81 -0.87 7.81 -3 6 C-2.34 5.67 -1.68 5.34 -1 5 C-0.34 2.47 -0.34 2.47 0 0 Z " fill="#1D3E68" transform="translate(267,1030)"/>
<path d="M0 0 C0 1.98 0 3.96 0 6 C-2.64 6.33 -5.28 6.66 -8 7 C-8 5.02 -8 3.04 -8 1 C-5.29 -0.35 -2.99 -0.07 0 0 Z " fill="#183964" transform="translate(924,1014)"/>
<path d="M0 0 C0.66 0.66 1.32 1.32 2 2 C-5.34 4.26 -12.33 5.57 -20 6 C-13.93 1.96 -7.36 -0.92 0 0 Z " fill="#2E4D74" transform="translate(313,938)"/>
<path d="M0 0 C-2.92 2.92 -6.47 3.37 -10.38 4.31 C-11.14 4.52 -11.91 4.73 -12.7 4.94 C-18.41 6.33 -18.41 6.33 -21.54 4.61 C-22.26 3.81 -22.26 3.81 -23 3 C-20.29 2.49 -17.58 1.99 -14.88 1.5 C-13.73 1.29 -13.73 1.29 -12.57 1.07 C-8.32 0.3 -4.34 -0.17 0 0 Z " fill="#C7D0DC" transform="translate(741,497)"/>
<path d="M0 0 C4.82 -0.19 8.5 0.24 13 2 C12.01 2.66 11.02 3.32 10 4 C10 3.34 10 2.68 10 2 C9.01 2 8.02 2 7 2 C6.34 3.32 5.68 4.64 5 6 C2.69 5.34 0.38 4.68 -2 4 C-1.34 2.68 -0.68 1.36 0 0 Z " fill="#1D66AA" transform="translate(482,471)"/>
<path d="M0 0 C0.33 0.99 0.66 1.98 1 3 C1.66 3 2.32 3 3 3 C3 3.99 3 4.98 3 6 C4.65 6.33 6.3 6.66 8 7 C8 8.65 8 10.3 8 12 C5.75 11.88 5.75 11.88 3 11 C0.62 8.25 0.62 8.25 -1 5 C-0.75 2.12 -0.75 2.12 0 0 Z " fill="#15325B" transform="translate(360,1029)"/>
<path d="M0 0 C0.66 0.33 1.32 0.66 2 1 C-0.95 4.37 -3.23 5.71 -7.56 6.81 C-8.51 7.07 -9.46 7.32 -10.44 7.58 C-13 8 -13 8 -16 7 C-16.33 7.66 -16.66 8.32 -17 9 C-17.66 8.34 -18.32 7.68 -19 7 C-17.96 6.66 -16.93 6.32 -15.86 5.98 C-14.49 5.53 -13.12 5.08 -11.75 4.62 C-11.07 4.4 -10.39 4.18 -9.68 3.95 C-6.9 3.04 -4.24 2.13 -1.64 0.77 C-1.1 0.52 -0.56 0.26 0 0 Z " fill="#315179" transform="translate(531,527)"/>
<path d="M0 0 C0.33 0 0.66 0 1 0 C1.33 4.29 1.66 8.58 2 13 C2.66 12.34 3.32 11.68 4 11 C4 14.63 4 18.26 4 22 C2.68 22 1.36 22 0 22 C0 14.74 0 7.48 0 0 Z " fill="#062348" transform="translate(652,1019)"/>
<path d="M0 0 C0.99 0.33 1.98 0.66 3 1 C2.01 2.49 2.01 2.49 1 4 C1.66 4.33 2.32 4.66 3 5 C2.55 5.74 2.09 6.49 1.62 7.25 C0.31 9.47 -0.88 11.68 -2 14 C-2.33 12.68 -2.66 11.36 -3 10 C-3.33 11.65 -3.66 13.3 -4 15 C-4.33 15 -4.66 15 -5 15 C-4.67 12.03 -4.34 9.06 -4 6 C-3.34 6 -2.68 6 -2 6 C-1.86 5.2 -1.71 4.39 -1.56 3.56 C-1 1 -1 1 0 0 Z " fill="#07264E" transform="translate(722,1016)"/>
<path d="M0 0 C0.99 0 1.98 0 3 0 C3.08 2.46 3.14 4.92 3.19 7.38 C3.21 8.07 3.24 8.77 3.26 9.49 C3.29 11.52 3.29 11.52 3 15 C1.51 15.99 1.51 15.99 0 17 C0 11.39 0 5.78 0 0 Z " fill="#0B274C" transform="translate(568,1020)"/>
<path d="M0 0 C0.66 0 1.32 0 2 0 C2 0.66 2 1.32 2 2 C3.32 2 4.64 2 6 2 C5.81 4.81 5.81 4.81 5 8 C2.44 9.88 2.44 9.88 0 11 C0 7.37 0 3.74 0 0 Z " fill="#0A2D55" transform="translate(910,1016)"/>
<path d="M0 0 C0.66 0 1.32 0 2 0 C2 12.54 2 25.08 2 38 C1.67 38 1.34 38 1 38 C0.97 36.99 0.95 35.97 0.92 34.93 C0.83 31.16 0.73 27.4 0.63 23.64 C0.58 22.01 0.54 20.38 0.5 18.75 C0.44 16.41 0.38 14.07 0.32 11.73 C0.3 11 0.28 10.27 0.27 9.52 C0.18 6.44 -0.02 3.95 -1 1 C-0.67 0.67 -0.34 0.34 0 0 Z " fill="#021E44" transform="translate(170,846)"/>
<path d="M0 0 C1.32 0 2.64 0 4 0 C4 5.61 4 11.22 4 17 C3.67 17 3.34 17 3 17 C2.67 14.36 2.34 11.72 2 9 C1.34 9.66 0.68 10.32 0 11 C0 7.37 0 3.74 0 0 Z " fill="#08284D" transform="translate(652,1005)"/>
<path d="M0 0 C0.99 0.33 1.98 0.66 3 1 C2.67 7.27 2.34 13.54 2 20 C1.34 20 0.68 20 0 20 C0 13.4 0 6.8 0 0 Z " fill="#07305B" transform="translate(688,1020)"/>
<path d="M0 0 C3.66 0.21 5.48 1.15 7.88 3.81 C10 7 10 7 9.81 9.38 C9.54 9.91 9.28 10.45 9 11 C8.34 10.34 7.68 9.68 7 9 C7 8.01 7 7.02 7 6 C5.02 6.99 5.02 6.99 3 8 C2.88 7.36 2.75 6.72 2.62 6.06 C2.32 5.04 2.32 5.04 2 4 C1.34 3.67 0.68 3.34 0 3 C0 2.01 0 1.02 0 0 Z " fill="#143661" transform="translate(603,1015)"/>
<path d="M0 0 C4.88 4.62 4.88 4.62 6 8 C3.69 8 1.38 8 -1 8 C-1.93 5.39 -2.15 4.36 -1.06 1.75 C-0.71 1.17 -0.36 0.6 0 0 Z " fill="#122C52" transform="translate(488,1034)"/>
<path d="M0 0 C3.88 1.88 3.88 1.88 5 3 C5.14 5.67 5.04 8.32 5 11 C4.34 10.34 3.68 9.68 3 9 C2.01 9.49 2.01 9.49 1 10 C-1.43 3.71 -1.43 3.71 0 0 Z " fill="#07244E" transform="translate(993,1016)"/>
<path d="M0 0 C0.33 0 0.66 0 1 0 C1 3.3 1 6.6 1 10 C-0.98 10.99 -0.98 10.99 -3 12 C-4.23 5.6 -4.23 5.6 -3.06 2.56 C-2.71 2.05 -2.36 1.53 -2 1 C-2 2.32 -2 3.64 -2 5 C-1.34 5 -0.68 5 0 5 C0 3.35 0 1.7 0 0 Z " fill="#102A4F" transform="translate(525,1025)"/>
<path d="M0 0 C0.99 0.33 1.98 0.66 3 1 C3 1.66 3 2.32 3 3 C3.66 3.33 4.32 3.66 5 4 C4.01 4.49 4.01 4.49 3 5 C1.87 7.02 1.87 7.02 1 9 C0.67 8.01 0.34 7.02 0 6 C-0.99 7.32 -1.98 8.64 -3 10 C-3.75 7.25 -3.75 7.25 -4 4 C-2.06 1.62 -2.06 1.62 0 0 Z " fill="#173861" transform="translate(978,1026)"/>
<path d="M0 0 C0.72 0 1.44 0.01 2.19 0.01 C2.91 0.01 3.63 0 4.38 0 C6.19 0.13 6.19 0.13 7.19 1.13 C8.18 1.13 9.17 1.13 10.19 1.13 C10.19 2.12 10.19 3.11 10.19 4.13 C6.56 4.13 2.93 4.13 -0.81 4.13 C-0.81 3.47 -0.81 2.81 -0.81 2.13 C-1.47 1.8 -2.13 1.47 -2.81 1.13 C-1.81 0.13 -1.81 0.13 0 0 Z " fill="#062653" transform="translate(981.8125,1024.8671875)"/>
<path d="M0 0 C0.33 0 0.66 0 1 0 C1.1 0.74 1.21 1.49 1.31 2.25 C1.82 5.04 1.82 5.04 3.56 7.06 C5 9 5 9 5 13 C3.68 13 2.36 13 1 13 C-0.91 9.83 -1.16 7.89 -0.62 4.25 C-0.51 3.45 -0.4 2.65 -0.29 1.83 C-0.19 1.22 -0.1 0.62 0 0 Z " fill="#092751" transform="translate(771,1020)"/>
<path d="M0 0 C2.29 3.44 2.18 4.99 2 9 C-0.93 8.37 -3.36 7.41 -6 6 C-4 4 -2 2 0 0 Z " fill="#0F3765" transform="translate(414,1031)"/>
<path d="M0 0 C0 2.97 0 5.94 0 9 C-1.32 8.34 -2.64 7.68 -4 7 C-4.66 7 -5.32 7 -6 7 C-6 4.69 -6 2.38 -6 0 C-4 -1 -4 -1 0 0 Z " fill="#304A6C" transform="translate(527,1023)"/>
<path d="M0 0 C1.98 0.99 1.98 0.99 4 2 C4.61 4.16 4.61 4.16 4.75 6.62 C4.81 7.44 4.86 8.26 4.92 9.1 C4.95 9.73 4.97 10.35 5 11 C3.35 10.67 1.7 10.34 0 10 C0 6.7 0 3.4 0 0 Z " fill="#07224B" transform="translate(499,1023)"/>
<path d="M0 0 C0.93 3.01 1.04 3.87 0 7 C-2.06 7.69 -2.06 7.69 -4 8 C-4.33 7.01 -4.66 6.02 -5 5 C-5.66 4.67 -6.32 4.34 -7 4 C-4.83 1.5 -3.27 0.56 0 0 Z " fill="#0E2C53" transform="translate(224,1020)"/>
<path d="M0 0 C-4.23 2.39 -8.11 3.59 -12.82 4.52 C-15.22 5 -15.22 5 -18.31 6.19 C-21.19 7.06 -22.21 6.84 -25 6 C-21.59 4.8 -18.17 3.61 -14.75 2.44 C-13.3 1.92 -13.3 1.92 -11.82 1.4 C-10.88 1.08 -9.95 0.76 -8.98 0.43 C-8.13 0.14 -7.27 -0.16 -6.38 -0.47 C-3.83 -1.04 -2.44 -0.85 0 0 Z " fill="#B9C4D2" transform="translate(801,491)"/>
<path d="M0 0 C0.99 0.33 1.98 0.66 3 1 C2.08 3.29 1.35 4.73 -0.62 6.25 C-4.14 7.36 -7.32 7.12 -11 7 C-11 6.67 -11 6.34 -11 6 C-10.05 5.71 -9.1 5.42 -8.12 5.12 C-4.95 4.23 -4.95 4.23 -3 2 C-2.01 2 -1.02 2 0 2 C0 1.34 0 0.68 0 0 Z " fill="#0B274F" transform="translate(608,1035)"/>
<path d="M0 0 C1.98 0 3.96 0 6 0 C6 0.66 6 1.32 6 2 C6.66 2.66 7.32 3.32 8 4 C4.94 6.62 4.27 7 0 7 C0 4.69 0 2.38 0 0 Z " fill="#133862" transform="translate(283,1016)"/>
<path d="M0 0 C0.33 0.66 0.66 1.32 1 2 C-3.03 7.88 -7.47 12.51 -13 17 C-13.66 16.67 -14.32 16.34 -15 16 C-14.08 15.1 -13.17 14.19 -12.23 13.26 C-11.03 12.07 -9.83 10.88 -8.62 9.69 C-8.02 9.09 -7.42 8.5 -6.8 7.88 C-6.22 7.31 -5.64 6.73 -5.04 6.14 C-4.5 5.61 -3.97 5.08 -3.42 4.53 C-1.78 2.85 -1.78 2.85 0 0 Z " fill="#2D8EE5" transform="translate(876,486)"/>
<path d="M0 0 C1.94 0.75 1.94 0.75 4 2 C5.04 4.92 5.07 7.48 4.88 10.55 C4.83 11.39 4.78 12.24 4.73 13.11 C4.68 13.98 4.62 14.85 4.56 15.75 C4.51 16.64 4.46 17.53 4.4 18.44 C4.27 20.63 4.14 22.81 4 25 C3.67 25 3.34 25 3 25 C2.67 18.4 2.34 11.8 2 5 C1.34 4.67 0.68 4.34 0 4 C0 2.68 0 1.36 0 0 Z " fill="#3C5A7F" transform="translate(688,1016)"/>
<path d="M0 0 C1 3 1 3 0.38 5.62 C-1 8 -1 8 -3.62 8.81 C-4.8 8.91 -4.8 8.91 -6 9 C-5.81 6.19 -5.81 6.19 -5 3 C-2.44 1.12 -2.44 1.12 0 0 Z " fill="#0B2649" transform="translate(383,1032)"/>
<path d="M0 0 C1.32 0.66 2.64 1.32 4 2 C4 5.3 4 8.6 4 12 C3.67 12 3.34 12 3 12 C3 10.02 3 8.04 3 6 C2.01 5.67 1.02 5.34 0 5 C-0.33 7.97 -0.66 10.94 -1 14 C-1.33 14 -1.66 14 -2 14 C-2.05 12.23 -2.09 10.46 -2.12 8.69 C-2.15 7.7 -2.17 6.72 -2.2 5.7 C-2 3 -2 3 0 0 Z " fill="#2C466A" transform="translate(500,1019)"/>
<path d="M0 0 C1.65 0 3.3 0 5 0 C5.33 1.32 5.66 2.64 6 4 C5.01 4 4.02 4 3 4 C2.6 5.21 2.6 5.21 2.19 6.44 C1.8 7.28 1.4 8.13 1 9 C0.01 9.33 -0.98 9.66 -2 10 C-1.54 6.53 -1.11 3.33 0 0 Z " fill="#0E2D5B" transform="translate(765,1015)"/>
<path d="M0 0 C1.23 0.01 1.23 0.01 2.48 0.03 C3.42 0.04 3.42 0.04 4.38 0.06 C4.05 1.05 3.71 2.04 3.38 3.06 C-4.38 4.19 -4.38 4.19 -6.62 3.06 C-6.62 2.4 -6.62 1.74 -6.62 1.06 C-4.22 -0.14 -2.68 -0.04 0 0 Z " fill="#04224B" transform="translate(259.625,1024.9375)"/>
<path d="M0 0 C2.01 3.01 2.73 5.21 3.62 8.69 C3.89 9.68 4.15 10.68 4.41 11.7 C4.61 12.46 4.8 13.22 5 14 C4.01 14 3.02 14 2 14 C1.67 12.35 1.34 10.7 1 9 C0.34 9 -0.32 9 -1 9 C-1.33 9.66 -1.66 10.32 -2 11 C-2.33 9.68 -2.66 8.36 -3 7 C-1.68 6.67 -0.36 6.34 1 6 C0.67 4.02 0.34 2.04 0 0 Z " fill="#27466F" transform="translate(753,1016)"/>
<path d="M0 0 C0.66 0 1.32 0 2 0 C1.67 1.65 1.34 3.3 1 5 C7.93 5 14.86 5 22 5 C22 5.33 22 5.66 22 6 C14.41 6 6.82 6 -1 6 C-0.67 4.02 -0.34 2.04 0 0 Z " fill="#E6F3FA" transform="translate(1048,890)"/>
<path d="M0 0 C0 1.32 0 2.64 0 4 C0.66 4.33 1.32 4.66 2 5 C-0.31 5.66 -2.62 6.32 -5 7 C-5.66 6.34 -6.32 5.68 -7 5 C-7 4.34 -7 3.68 -7 3 C-4.44 0.7 -3.52 0 0 0 Z " fill="#163864" transform="translate(698,1014)"/>
<path d="M0 0 C0.66 0.33 1.32 0.66 2 1 C-0.25 3.44 -2.56 5.1 -5.44 6.75 C-6.58 7.42 -6.58 7.42 -7.75 8.11 C-10.33 9.13 -11.44 8.96 -14 8 C-11.71 6.64 -9.42 5.28 -7.12 3.94 C-6.47 3.55 -5.82 3.16 -5.15 2.76 C-3.47 1.78 -1.74 0.88 0 0 Z " fill="#284870" transform="translate(669,304)"/>
<path d="M0 0 C1.32 1.65 2.64 3.3 4 5 C2.31 6.19 2.31 6.19 0 7 C-2.75 5.62 -2.75 5.62 -5 4 C-3.74 1.49 -2.5 1.13 0 0 Z " fill="#21436F" transform="translate(722,1031)"/>
<path d="M0 0 C0.33 0 0.66 0 1 0 C0.76 6.15 0.76 6.15 -1.4 8.58 C-2.88 9.79 -4.44 10.9 -6 12 C-6.33 11.01 -6.66 10.02 -7 9 C-5.82 7.25 -5.82 7.25 -4.12 5.44 C-1.78 2.92 -1.78 2.92 0 0 Z " fill="#14325D" transform="translate(354,923)"/>
<path d="M0 0 C2.31 -0.31 2.31 -0.31 5 0 C6.81 2.5 6.81 2.5 8 5 C4.53 6.16 1.64 6.07 -2 6 C-2 5.34 -2 4.68 -2 4 C-0.35 3.34 1.3 2.68 3 2 C2.01 1.34 1.02 0.68 0 0 Z " fill="#24436A" transform="translate(853,1037)"/>
<path d="M0 0 C0.33 0 0.66 0 1 0 C1 4.62 1 9.24 1 14 C0.01 13.67 -0.98 13.34 -2 13 C-2.17 8.08 -2.25 4.5 0 0 Z " fill="#052144" transform="translate(588,863)"/>
<path d="M0 0 C2.64 0.33 5.28 0.66 8 1 C5.84 3.16 4.48 3.72 1.62 4.69 C0.85 4.96 0.08 5.23 -0.71 5.51 C-3.2 6.04 -4.62 5.81 -7 5 C-6.03 4.73 -5.06 4.46 -4.06 4.19 C-3.05 3.8 -2.04 3.4 -1 3 C-0.67 2.01 -0.34 1.02 0 0 Z " fill="#0A2954" transform="translate(788,489)"/>
<path d="M0 0 C1.65 0.33 3.3 0.66 5 1 C4.34 2.98 3.68 4.96 3 7 C1.68 7 0.36 7 -1 7 C-0.67 4.69 -0.34 2.38 0 0 Z " fill="#0A244A" transform="translate(780,1025)"/>
<path d="M0 0 C0.33 0 0.66 0 1 0 C1.49 7.26 1.49 7.26 -1 11 C-1.66 11.66 -2.32 12.32 -3 13 C-3.99 12.67 -4.98 12.34 -6 12 C-5.67 10.68 -5.34 9.36 -5 8 C-3.68 7.67 -2.36 7.34 -1 7 C-0.67 4.69 -0.34 2.38 0 0 Z " fill="#082857" transform="translate(492,1013)"/>
<path d="M0 0 C2.31 0 4.62 0 7 0 C6.65 0.76 6.3 1.53 5.94 2.31 C4.68 5.05 4.68 5.05 6 8 C5.34 8 4.68 8 4 8 C0 2.59 0 2.59 0 0 Z " fill="#163058" transform="translate(808,1004)"/>
<path d="M0 0 C0 3 0 6 0 9 C-1.32 8.67 -2.64 8.34 -4 8 C-4.75 6.25 -4.75 6.25 -5 4 C-1.67 0 -1.67 0 0 0 Z " fill="#122F55" transform="translate(863,1032)"/>
<path d="M0 0 C-0.33 2.64 -0.66 5.28 -1 8 C-2.65 7.67 -4.3 7.34 -6 7 C-5.37 3.36 -4.15 0 0 0 Z " fill="#1A3D68" transform="translate(869,1023)"/>
<path d="M0 0 C1.98 0 3.96 0 6 0 C5.34 2.31 4.68 4.62 4 7 C3.01 6.01 2.02 5.02 1 4 C0.01 4.33 -0.98 4.66 -2 5 C-1.34 3.35 -0.68 1.7 0 0 Z " fill="#344D72" transform="translate(784,1014)"/>
<path d="M0 0 C2.31 0 4.62 0 7 0 C7.66 1.32 8.32 2.64 9 4 C4.55 4.5 4.55 4.5 0 5 C0 3.33 0 1.67 0 0 Z " fill="#1866A9" transform="translate(443,471)"/>
<path d="M0 0 C0.33 0 0.66 0 1 0 C1 1.65 1 3.3 1 5 C1.58 5.23 2.15 5.45 2.75 5.69 C5.57 7.33 7.08 9.4 9 12 C5.34 12 4.81 11.29 2.25 8.81 C0.39 6.89 0.39 6.89 -1 5 C-0.94 2.06 -0.94 2.06 0 0 Z " fill="#2190E8" transform="translate(774,270)"/>
<path d="M0 0 C2.69 0.18 5.33 0.62 8 1 C5.6 3.9 3.69 4.5 0 5 C-0.56 3.06 -0.56 3.06 -1 1 C-0.67 0.67 -0.34 0.34 0 0 Z " fill="#0C2B52" transform="translate(251,1016)"/>
<path d="M0 0 C0.33 1.32 0.66 2.64 1 4 C1.99 4.33 2.98 4.66 4 5 C3.01 5.66 2.02 6.32 1 7 C0.34 6.34 -0.32 5.68 -1 5 C-1.99 5.99 -2.98 6.98 -4 8 C-4.99 7.67 -5.98 7.34 -7 7 C-4.69 4.69 -2.38 2.38 0 0 Z " fill="#254268" transform="translate(667,1011)"/>
<path d="M0 0 C0.33 0 0.66 0 1 0 C1 3.63 1 7.26 1 11 C0.01 11.33 -0.98 11.66 -2 12 C-2 9.03 -2 6.06 -2 3 C-1.34 3 -0.68 3 0 3 C0 2.01 0 1.02 0 0 Z " fill="#052852" transform="translate(950,1010)"/>
<path d="M0 0 C1.32 0 2.64 0 4 0 C4 2.31 4 4.62 4 7 C3.34 7 2.68 7 2 7 C1.34 7.66 0.68 8.32 0 9 C0 6.03 0 3.06 0 0 Z " fill="#0A3162" transform="translate(235,1004)"/>
<path d="M0 0 C2.31 0 4.62 0 7 0 C5.61 3.37 4.02 4.99 1 7 C1 3 1 3 2 1 C1.34 0.67 0.68 0.34 0 0 Z " fill="#1D406B" transform="translate(674,1004)"/>
<path d="M0 0 C0.66 0.33 1.32 0.66 2 1 C-1.82 5.4 -4.47 6.81 -10 8 C-6.98 4.74 -3.74 2.38 0 0 Z " fill="#298FE5" transform="translate(843,516)"/>
<path d="M0 0 C0.33 0 0.66 0 1 0 C1.05 0.88 1.1 1.76 1.15 2.67 C1.22 3.83 1.3 4.99 1.38 6.19 C1.44 7.34 1.51 8.48 1.59 9.67 C1.98 12.8 2.68 15.15 4 18 C2.35 18 0.7 18 -1 18 C-0.5 9.09 -0.5 9.09 0 0 Z " fill="#0F3055" transform="translate(1008,1024)"/>
<path d="M0 0 C1.98 0 3.96 0 6 0 C6 1.65 6 3.3 6 5 C4.35 5 2.7 5 1 5 C0.67 3.35 0.34 1.7 0 0 Z " fill="#153862" transform="translate(1017,1014)"/>
<path d="M0 0 C0.66 0.33 1.32 0.66 2 1 C1.52 1.47 1.04 1.94 0.54 2.43 C-0.09 3.05 -0.72 3.67 -1.38 4.31 C-2.31 5.23 -2.31 5.23 -3.27 6.18 C-5.18 8.09 -5.18 8.09 -7 11 C-9.62 11.69 -9.62 11.69 -12 12 C-8 8 -4 4 0 0 Z " fill="#D7E0E8" transform="translate(376,947)"/>
<path d="M0 0 C2.51 2.4 3.95 3.78 4.1 7.38 C4.09 8.29 4.07 9.19 4.06 10.12 C4.05 11.04 4.04 11.95 4.04 12.88 C4.02 13.58 4.01 14.28 4 15 C3.67 15 3.34 15 3 15 C3 12.03 3 9.06 3 6 C1.68 6 0.36 6 -1 6 C-0.67 4.02 -0.34 2.04 0 0 Z " fill="#344E72" transform="translate(741,1018)"/>
<path d="M0 0 C0.66 0.33 1.32 0.66 2 1 C2.12 4.38 2.12 4.38 2 8 C1.34 8.66 0.68 9.32 0 10 C-0.66 9.67 -1.32 9.34 -2 9 C-1.12 1.12 -1.12 1.12 0 0 Z " fill="#083164" transform="translate(490,1012)"/>
<path d="M0 0 C2.64 0 5.28 0 8 0 C8 0.99 8 1.98 8 3 C4.7 3 1.4 3 -2 3 C-1.34 2.67 -0.68 2.34 0 2 C0 1.34 0 0.68 0 0 Z " fill="#EAF5FB" transform="translate(867,891)"/>
<path d="M0 0 C2.31 0.33 4.62 0.66 7 1 C5 4 5 4 2.06 4.88 C-1 5 -1 5 -2.88 3.56 C-3.43 2.79 -3.43 2.79 -4 2 C-2.35 2 -0.7 2 1 2 C0.67 1.34 0.34 0.68 0 0 Z " fill="#0A2C59" transform="translate(850,1037)"/>
<path d="M0 0 C0.66 0.66 1.32 1.32 2 2 C1.18 2.72 0.35 3.44 -0.5 4.19 C-3.24 6.73 -3.24 6.73 -3.31 9.81 C-3.16 10.9 -3.16 10.9 -3 12 C-4.38 10.71 -5.71 9.37 -7 8 C-7 7.34 -7 6.68 -7 6 C-5.34 4.99 -3.67 3.99 -2 3 C-1.34 2.01 -0.68 1.02 0 0 Z " fill="#DAE0E8" transform="translate(492,1021)"/>
<path d="M0 0 C0.33 0.66 0.66 1.32 1 2 C-3.62 2 -8.24 2 -13 2 C-13 1.67 -13 1.34 -13 1 C-4.21 -1.53 -4.21 -1.53 0 0 Z " fill="#041F44" transform="translate(655,874)"/>
<path d="M0 0 C-1 2 -1 2 -3.25 3.12 C-6.02 4.01 -8.12 4.16 -11 4 C-11 3.01 -11 2.02 -11 1 C-7.28 0.31 -3.79 -0.11 0 0 Z " fill="#F4F6F8" transform="translate(723,501)"/>
<path d="M0 0 C0.33 0 0.66 0 1 0 C1 4.62 1 9.24 1 14 C-0.67 10.65 -1.65 8.63 -2 5 C-1.06 2.19 -1.06 2.19 0 0 Z " fill="#092547" transform="translate(416,1018)"/>
<path d="M0 0 C3 4 3 4 3.14 6.11 C2.83 8.08 2.42 10.04 2 12 C1.01 12.5 1.01 12.5 0 13 C0 8.71 0 4.42 0 0 Z " fill="#067EED" transform="translate(945,852)"/>
<path d="M0 0 C1.32 0.66 2.64 1.32 4 2 C2.69 4 2.69 4 1 6 C0.01 6 -0.98 6 -2 6 C-2 4.68 -2 3.36 -2 2 C-1.34 2 -0.68 2 0 2 C0 1.34 0 0.68 0 0 Z " fill="#0B2A54" transform="translate(1048,1035)"/>
<path d="M0 0 C1.21 2.33 2.17 4.5 3 7 C1.68 7.99 0.36 8.98 -1 10 C-1 8.35 -1 6.7 -1 5 C-1.66 4.67 -2.32 4.34 -3 4 C-2.01 2.68 -1.02 1.36 0 0 Z " fill="#213B60" transform="translate(520,1031)"/>
<path d="M0 0 C3.3 0 6.6 0 10 0 C9.01 1.49 9.01 1.49 8 3 C4.88 3.19 4.88 3.19 2 3 C2 2.34 2 1.68 2 1 C1.34 0.67 0.68 0.34 0 0 Z " fill="#183459" transform="translate(367,1014)"/>
<path d="M0 0 C-1.32 0.33 -2.64 0.66 -4 1 C-4 1.66 -4 2.32 -4 3 C-6.38 4.69 -6.38 4.69 -9 6 C-9.66 5.67 -10.32 5.34 -11 5 C-8.11 1.79 -4.48 -2.24 0 0 Z " fill="#3291E5" transform="translate(798,543)"/>
<path d="M0 0 C0 0.99 0 1.98 0 3 C-0.99 3 -1.98 3 -3 3 C-3 3.66 -3 4.32 -3 5 C-3.99 5 -4.98 5 -6 5 C-6.33 3.68 -6.66 2.36 -7 1 C-4 0 -4 0 0 0 Z " fill="#F5F6F8" transform="translate(686,509)"/>
<path d="M0 0 C0 0.66 0 1.32 0 2 C-2.81 2.69 -2.81 2.69 -6 3 C-7.88 1.56 -7.88 1.56 -9 0 C-5.62 -0.84 -3.33 -1.11 0 0 Z " fill="#EBEEF2" transform="translate(711,504)"/>
<path d="M0 0 C2.48 0.49 2.48 0.49 5 1 C5 2.65 5 4.3 5 6 C3.68 5.67 2.36 5.34 1 5 C0.67 3.35 0.34 1.7 0 0 Z " fill="#082347" transform="translate(363,1035)"/>
<path d="M0 0 C0.66 0 1.32 0 2 0 C4 3 4 3 3.62 5.69 C3.42 6.45 3.21 7.21 3 8 C2.67 7.34 2.34 6.68 2 6 C1.34 6 0.68 6 0 6 C-1.12 2.25 -1.12 2.25 0 0 Z " fill="#13305A" transform="translate(346,1016)"/>
<path d="M0 0 C0 1.33 0 2.67 0 4 C-2.64 4.33 -5.28 4.66 -8 5 C-8 3 -8 3 -6.81 1.38 C-4.44 -0.42 -2.9 -0.24 0 0 Z " fill="#082449" transform="translate(602,1014)"/>
<path d="M0 0 C0.9 0.02 1.81 0.05 2.74 0.07 C4.11 0.1 4.11 0.1 5.5 0.12 C6.2 0.15 6.9 0.17 7.62 0.2 C7.29 1.19 6.96 2.18 6.62 3.2 C2.99 2.87 -0.64 2.54 -4.38 2.2 C-2.38 0.2 -2.38 0.2 0 0 Z " fill="#1E3B61" transform="translate(851.3828125,1013.8046875)"/>
<path d="M0 0 C4.68 1.48 4.68 1.48 6.31 4.12 C6.54 4.74 6.77 5.36 7 6 C6.34 6 5.68 6 5 6 C5 5.34 5 4.68 5 4 C2.69 4 0.38 4 -2 4 C-1.34 2.68 -0.68 1.36 0 0 Z " fill="#19335A" transform="translate(703,1014)"/>
<path d="M0 0 C1.32 0 2.64 0 4 0 C3.6 2.89 3.21 3.82 0.94 5.75 C0.3 6.16 -0.34 6.58 -1 7 C-1 4.38 -0.69 2.49 0 0 Z " fill="#1C3459" transform="translate(696,947)"/>
<path d="M0 0 C0.33 0.66 0.66 1.32 1 2 C1.66 2.33 2.32 2.66 3 3 C2.01 4.98 1.02 6.96 0 9 C-0.66 8.34 -1.32 7.68 -2 7 C-1.43 1.43 -1.43 1.43 0 0 Z " fill="#EAF4FC" transform="translate(1016,876)"/>
<path d="M0 0 C0 0.66 0 1.32 0 2 C-0.66 2 -1.32 2 -2 2 C-2.33 2.99 -2.66 3.98 -3 5 C-4.62 6.39 -6.29 7.73 -8 9 C-7.7 5.41 -7.23 4.22 -4.56 1.69 C-2 0 -2 0 0 0 Z " fill="#0871DB" transform="translate(988,861)"/>
<path d="M0 0 C0.66 0 1.32 0 2 0 C0.81 3.38 -0.28 5.65 -3 8 C-3.99 7.67 -4.98 7.34 -6 7 C-5.05 5.83 -4.09 4.66 -3.12 3.5 C-2.59 2.85 -2.06 2.2 -1.51 1.53 C-0.76 0.77 -0.76 0.77 0 0 Z " fill="#22436E" transform="translate(486,626)"/>
<path d="M0 0 C0 0.66 0 1.32 0 2 C-3.31 3.62 -3.31 3.62 -7 5 C-7.99 4.34 -8.98 3.68 -10 3 C-3.38 0 -3.38 0 0 0 Z " fill="#345179" transform="translate(512,535)"/>
<path d="M0 0 C1.65 0.33 3.3 0.66 5 1 C4.67 1.99 4.34 2.98 4 4 C2.06 4.81 2.06 4.81 0 5 C-0.66 4.34 -1.32 3.68 -2 3 C-1.34 2.01 -0.68 1.02 0 0 Z " fill="#0C284D" transform="translate(262,1037)"/>
<path d="M0 0 C1.67 -0.04 3.33 -0.04 5 0 C6 1 6 1 6.06 3.56 C6.04 4.37 6.02 5.17 6 6 C5.67 4.68 5.34 3.36 5 2 C2.53 3.48 2.53 3.48 0 5 C0 3.35 0 1.7 0 0 Z " fill="#082859" transform="translate(1061,1035)"/>
<path d="M0 0 C2.44 0.38 2.44 0.38 5 1 C5.33 1.66 5.66 2.32 6 3 C4.68 3 3.36 3 2 3 C1.34 4.98 0.68 6.96 0 9 C-0.33 9 -0.66 9 -1 9 C-1.12 2.25 -1.12 2.25 0 0 Z " fill="#1F3E68" transform="translate(1027,1021)"/>
<path d="M0 0 C2.48 0.99 2.48 0.99 5 2 C3.35 3.65 1.7 5.3 0 7 C0 4.69 0 2.38 0 0 Z " fill="#042E60" transform="translate(465,1022)"/>
<path d="M0 0 C0.87 2.99 1.11 5.64 1.06 8.75 C1.05 9.55 1.04 10.35 1.04 11.17 C1.02 12.08 1.02 12.08 1 13 C0.67 13 0.34 13 0 13 C-0.49 11.01 -0.98 9.03 -1.46 7.04 C-1.91 5.34 -2.44 3.67 -3 2 C-2.01 2 -1.02 2 0 2 C0 1.34 0 0.68 0 0 Z " fill="#04204A" transform="translate(740,1018)"/>
<path d="M0 0 C1.65 0 3.3 0 5 0 C5 4 5 4 4 6 C2.68 5.34 1.36 4.68 0 4 C0 2.68 0 1.36 0 0 Z " fill="#0B274C" transform="translate(698,1014)"/>
<path d="M0 0 C1.32 0 2.64 0 4 0 C3.74 2.34 3.41 4.68 3 7 C2.01 7.5 2.01 7.5 1 8 C0.67 5.36 0.34 2.72 0 0 Z " fill="#0B2C56" transform="translate(413,1015)"/>
<path d="M0 0 C2.48 0.99 2.48 0.99 5 2 C5 2.66 5 3.32 5 4 C6.65 4 8.3 4 10 4 C9.67 4.66 9.34 5.32 9 6 C6.03 5.01 3.06 4.02 0 3 C0 2.01 0 1.02 0 0 Z " fill="#298BE4" transform="translate(843,960)"/>
<path d="M0 0 C0.66 0 1.32 0 2 0 C4.43 3.37 5 4.73 5 9 C2.5 6.75 2.5 6.75 0 4 C0 2.68 0 1.36 0 0 Z " fill="#13325E" transform="translate(600,939)"/>
<path d="M0 0 C0 0.99 0 1.98 0 3 C-3.84 4.48 -6.06 5.22 -10 4 C-8.71 3.33 -7.42 2.66 -6.12 2 C-5.41 1.63 -4.69 1.26 -3.95 0.88 C-2 0 -2 0 0 0 Z " fill="#26466F" transform="translate(457,560)"/>
<path d="M0 0 C3 2 3 2 3.69 4.62 C3.79 5.41 3.89 6.19 4 7 C3.01 6.34 2.02 5.68 1 5 C0.01 5.49 0.01 5.49 -1 6 C-1.33 4.35 -1.66 2.7 -2 1 C-1.34 0.67 -0.68 0.34 0 0 Z " fill="#D7DDE4" transform="translate(747,1019)"/>
<path d="M0 0 C0.99 0 1.98 0 3 0 C2.34 2.31 1.68 4.62 1 7 C0.01 6.67 -0.98 6.34 -2 6 C-2 2 -2 2 0 0 Z " fill="#1E4066" transform="translate(725,1014)"/>
<path d="M0 0 C0.33 1.32 0.66 2.64 1 4 C-0.65 4.33 -2.3 4.66 -4 5 C-4 3.68 -4 2.36 -4 1 C-2 0 -2 0 0 0 Z " fill="#07264A" transform="translate(672,1010)"/>
<path d="M0 0 C0.99 0 1.98 0 3 0 C2.19 3.44 2.19 3.44 1 7 C0.01 7.33 -0.98 7.66 -2 8 C-2.2 4.28 -2.15 3.23 0 0 Z " fill="#1C3C64" transform="translate(294,897)"/>
<path d="M0 0 C0.99 0.99 1.98 1.98 3 3 C2.34 4.32 1.68 5.64 1 7 C0.01 7 -0.98 7 -2 7 C-1.34 4.69 -0.68 2.38 0 0 Z " fill="#369AEC" transform="translate(839,492)"/>
<path d="M0 0 C2 1.38 2 1.38 4 3 C4 3.66 4 4.32 4 5 C1.69 5 -0.62 5 -3 5 C-3 4.34 -3 3.68 -3 3 C-2.01 2.67 -1.02 2.34 0 2 C0 1.34 0 0.68 0 0 Z " fill="#31476B" transform="translate(678,1037)"/>
<path d="M0 0 C2.31 0.33 4.62 0.66 7 1 C6.67 2.32 6.34 3.64 6 5 C4.35 4.67 2.7 4.34 1 4 C0.67 2.68 0.34 1.36 0 0 Z " fill="#1F446D" transform="translate(885,1037)"/>
<path d="M0 0 C1.65 0 3.3 0 5 0 C4.67 1.32 4.34 2.64 4 4 C3.01 4 2.02 4 1 4 C0.67 2.68 0.34 1.36 0 0 Z " fill="#F4F6F7" transform="translate(1033,1031)"/>
<path d="M0 0 C4.75 0.75 4.75 0.75 7 3 C5.64 2.97 5.64 2.97 4.25 2.94 C1.57 2.99 -0.47 3.22 -3 4 C-2.01 2.68 -1.02 1.36 0 0 Z " fill="#052049" transform="translate(846,1016)"/>
<path d="M0 0 C2.93 0.37 3.86 0.86 6 3 C3.69 3.62 3.69 3.62 1 4 C0.01 3.34 -0.98 2.68 -2 2 C-1.34 1.34 -0.68 0.68 0 0 Z " fill="#08244B" transform="translate(505,1015)"/>
<path d="M0 0 C-1.05 2.62 -1.65 3.79 -4.12 5.25 C-4.74 5.5 -5.36 5.75 -6 6 C-6.66 5.34 -7.32 4.68 -8 4 C-2.25 0 -2.25 0 0 0 Z " fill="#2A90ED" transform="translate(1103,929)"/>
<path d="M0 0 C-0.33 0.99 -0.66 1.98 -1 3 C-3.88 3.62 -3.88 3.62 -7 4 C-7.66 3.34 -8.32 2.68 -9 2 C-3.38 0 -3.38 0 0 0 Z " fill="#2B90E7" transform="translate(751,560)"/>
<path d="M0 0 C0.66 0.33 1.32 0.66 2 1 C1 4 1 4 -0.88 5.25 C-3 6 -3 6 -6 5 C-4.02 3.35 -2.04 1.7 0 0 Z " fill="#117BDE" transform="translate(436,544)"/>
<path d="M0 0 C0.99 0.33 1.98 0.66 3 1 C3 1.99 3 2.98 3 4 C4.65 4 6.3 4 8 4 C8 4.33 8 4.66 8 5 C2.46 5.37 2.46 5.37 0.12 3.5 C-0.25 3 -0.62 2.51 -1 2 C-0.67 1.34 -0.34 0.68 0 0 Z " fill="#1B416F" transform="translate(1015,1015)"/>
<path d="M0 0 C0.99 0.33 1.98 0.66 3 1 C2.34 2.98 1.68 4.96 1 7 C-0.32 5.68 -1.64 4.36 -3 3 C-2.34 3 -1.68 3 -1 3 C-0.67 2.01 -0.34 1.02 0 0 Z " fill="#163356" transform="translate(380,1017)"/>
<path d="M0 0 C-0.33 0.99 -0.66 1.98 -1 3 C-1.66 3 -2.32 3 -3 3 C-3 3.66 -3 4.32 -3 5 C-2.34 5.33 -1.68 5.66 -1 6 C-1.99 6.33 -2.98 6.66 -4 7 C-4.33 5.02 -4.66 3.04 -5 1 C-3 0 -3 0 0 0 Z " fill="#1F3C62" transform="translate(597,1014)"/>
<path d="M0 0 C2.97 0 5.94 0 9 0 C6.64 2.1 5.45 2.97 2.25 3.19 C1.14 3.09 1.14 3.09 0 3 C0 2.01 0 1.02 0 0 Z " fill="#16345B" transform="translate(982,1014)"/>
<path d="M0 0 C2.31 0 4.62 0 7 0 C6.38 0.19 5.76 0.37 5.12 0.56 C1.94 2.71 1.81 5.38 1 9 C0.67 9 0.34 9 0 9 C0 6.03 0 3.06 0 0 Z " fill="#0A2D57" transform="translate(136,815)"/>
<path d="M0 0 C0.66 1.32 1.32 2.64 2 4 C2.66 4 3.32 4 4 4 C4 5.98 4 7.96 4 10 C3.34 9.67 2.68 9.34 2 9 C1.37 6.93 1.37 6.93 0.88 4.44 C0.71 3.61 0.54 2.78 0.37 1.93 C0.25 1.3 0.12 0.66 0 0 Z " fill="#082653" transform="translate(753,1029)"/>
<path d="M0 0 C0.33 0 0.66 0 1 0 C1 2.64 1 5.28 1 8 C-0.32 7.34 -1.64 6.68 -3 6 C-2.67 4.68 -2.34 3.36 -2 2 C-1.67 2.66 -1.34 3.32 -1 4 C-0.67 2.68 -0.34 1.36 0 0 Z " fill="#062857" transform="translate(385,1024)"/>
<path d="M0 0 C0 3 0 3 -1.5 4.69 C-2 5.12 -2.49 5.55 -3 6 C-3.66 4.68 -4.32 3.36 -5 2 C-3.35 1.34 -1.7 0.68 0 0 Z " fill="#0D325F" transform="translate(867,1021)"/>
<path d="M0 0 C3.72 -0.2 4.77 -0.15 8 2 C8 2.66 8 3.32 8 4 C5.33 3.33 2.67 2.67 0 2 C0 1.34 0 0.68 0 0 Z " fill="#3A5275" transform="translate(426,1014)"/>
<path d="M0 0 C0.99 0.99 1.98 1.98 3 3 C2.34 4.32 1.68 5.64 1 7 C-1 4 -1 4 -0.62 1.81 C-0.42 1.21 -0.21 0.62 0 0 Z " fill="#0D2B54" transform="translate(333,1010)"/>
<path d="M0 0 C-0.66 1.98 -1.32 3.96 -2 6 C-2.33 5.34 -2.66 4.68 -3 4 C-5.02 3.35 -5.02 3.35 -7 3 C-2.25 0 -2.25 0 0 0 Z " fill="#FAA942" transform="translate(354,878)"/>
<path d="M0 0 C1.32 1.65 2.64 3.3 4 5 C2.68 6.32 1.36 7.64 0 9 C0 6.03 0 3.06 0 0 Z " fill="#E3F0FB" transform="translate(979,859)"/>
<path d="M0 0 C0.66 0.33 1.32 0.66 2 1 C-0.97 3.48 -0.97 3.48 -4 6 C-4 5.34 -4 4.68 -4 4 C-4.66 3.67 -5.32 3.34 -6 3 C-4.04 1.93 -2.03 0.93 0 0 Z " fill="#33507C" transform="translate(768,646)"/>
<path d="M0 0 C0.66 0.99 1.32 1.98 2 3 C0.19 4.56 0.19 4.56 -2 6 C-2.99 5.67 -3.98 5.34 -5 5 C-3.35 3.35 -1.7 1.7 0 0 Z " fill="#36557D" transform="translate(502,609)"/>
<path d="M0 0 C0 0.99 0 1.98 0 3 C-2.5 5.19 -2.5 5.19 -5 7 C-5.66 6.67 -6.32 6.34 -7 6 C-4.69 4.02 -2.38 2.04 0 0 Z " fill="#1B81DD" transform="translate(631,591)"/>
<path d="M0 0 C-0.33 0.99 -0.66 1.98 -1 3 C-3.56 4.19 -3.56 4.19 -6 5 C-6.66 4.34 -7.32 3.68 -8 3 C-2.25 0 -2.25 0 0 0 Z " fill="#E5E9EF" transform="translate(551,558)"/>
<path d="M0 0 C0 0.99 0 1.98 0 3 C-1.65 3.66 -3.3 4.32 -5 5 C-5 4.34 -5 3.68 -5 3 C-5.66 2.67 -6.32 2.34 -7 2 C-2.25 0 -2.25 0 0 0 Z " fill="#2C4E74" transform="translate(597,548)"/>
<path d="M0 0 C0.99 0 1.98 0 3 0 C3 0.99 3 1.98 3 3 C2.01 3.33 1.02 3.66 0 4 C-0.33 4.66 -0.66 5.32 -1 6 C-1.66 6 -2.32 6 -3 6 C-1.12 1.12 -1.12 1.12 0 0 Z " fill="#1386EB" transform="translate(894,459)"/>
<path d="M0 0 C0.33 0.66 0.66 1.32 1 2 C1.66 2.33 2.32 2.66 3 3 C1.35 4.65 -0.3 6.3 -2 8 C-2.66 7.67 -3.32 7.34 -4 7 C-3.53 6.22 -3.05 5.43 -2.56 4.62 C-1.66 3.11 -0.79 1.58 0 0 Z " fill="#CED6E0" transform="translate(698,338)"/>
</svg>
